<svg width="25" height="24" viewBox="0 0 25 24" fill="none" xmlns="http://www.w3.org/2000/svg">
<g clip-path="url(#clip0_164_613)">
<path d="M12.5 19.5C4.32168 19.5 0.266992 12.6555 0.0984375 12.3643C-0.0328125 12.1376 -0.0328125 11.8622 0.0984375 11.6355C0.266992 11.3445 4.32168 4.5 12.5 4.5C20.6783 4.5 24.733 11.3445 24.9016 11.6357C25.0328 11.8624 25.0328 12.1378 24.9016 12.3645C24.733 12.6555 20.6783 19.5 12.5 19.5ZM1.70059 11.9989C2.62988 13.3509 6.27852 18 12.5 18C18.7412 18 22.3736 13.3547 23.2994 12.0011C22.3701 10.6491 18.7215 6 12.5 6C6.25879 6 2.62637 10.6453 1.70059 11.9989ZM12.5 16.5C9.91523 16.5 7.8125 14.4814 7.8125 12C7.8125 9.51862 9.91523 7.5 12.5 7.5C15.0848 7.5 17.1875 9.51862 17.1875 12C17.1875 14.4814 15.0848 16.5 12.5 16.5ZM12.5 9C10.777 9 9.375 10.3459 9.375 12C9.375 13.6541 10.777 15 12.5 15C14.223 15 15.625 13.6541 15.625 12C15.625 10.3459 14.223 9 12.5 9Z" fill="#808080"/>
</g>
<defs>
<clipPath id="clip0_164_613">
<rect width="25" height="24" fill="white"/>
</clipPath>
</defs>
</svg>
