<svg width="19" height="20" viewBox="0 0 19 20" fill="none" xmlns="http://www.w3.org/2000/svg">
<path d="M13.1984 8.63987C13.1984 8.22256 12.8601 7.88428 12.4429 7.88428H4.66081C4.24353 7.88428 3.90527 8.22256 3.90527 8.63987C3.90527 9.05719 4.24353 9.39547 4.66081 9.39547H12.4429C12.8601 9.39547 13.1984 9.05719 13.1984 8.63987Z" fill="#808080"/>
<path d="M4.66081 10.9067C4.24353 10.9067 3.90527 11.245 3.90527 11.6623C3.90527 12.0797 4.24353 12.4179 4.66081 12.4179H9.38712C9.8044 12.4179 10.1427 12.0797 10.1427 11.6623C10.1427 11.245 9.8044 10.9067 9.38712 10.9067H4.66081Z" fill="#808080"/>
<path d="M6.43573 18.1605H3.90887C3.07566 18.1605 2.39779 17.4825 2.39779 16.6493V3.35076C2.39779 2.51748 3.07566 1.83956 3.90887 1.83956H13.1978C14.031 1.83956 14.7089 2.51748 14.7089 3.35076V7.99768C14.7089 8.415 15.0471 8.75328 15.4644 8.75328C15.8817 8.75328 16.2199 8.415 16.2199 7.99768V3.35076C16.2199 1.68421 14.8642 0.328369 13.1978 0.328369H3.90887C2.24246 0.328369 0.886719 1.68421 0.886719 3.35076V16.6493C0.886719 18.3158 2.24246 19.6717 3.90887 19.6717H6.43573C6.85301 19.6717 7.19127 19.3334 7.19127 18.9161C7.19127 18.4987 6.85301 18.1605 6.43573 18.1605Z" fill="#808080"/>
<path d="M17.5587 11.2684C16.675 10.3846 15.237 10.3846 14.3538 11.2678L10.2058 15.407C10.1177 15.4949 10.0528 15.6032 10.0166 15.7223L9.1132 18.6965C9.03312 18.9602 9.10289 19.2465 9.29533 19.4438C9.43948 19.5915 9.63532 19.6717 9.83618 19.6717C9.90338 19.6717 9.97123 19.6627 10.0378 19.6443L13.0874 18.7995C13.2129 18.7647 13.3273 18.6981 13.4194 18.6061L17.5588 14.4742C18.4425 13.5904 18.4425 12.1523 17.5587 11.2684ZM12.4925 17.3962L10.9583 17.8212L11.4073 16.3429L14.2062 13.55L15.2749 14.6188L12.4925 17.3962ZM16.4908 13.4052L16.3444 13.5513L15.2759 12.4827L15.4218 12.3371C15.7164 12.0425 16.1957 12.0425 16.4903 12.3371C16.7849 12.6317 16.7849 13.111 16.4908 13.4052Z" fill="#808080"/>
<path d="M12.4429 4.86182H4.66081C4.24353 4.86182 3.90527 5.2001 3.90527 5.61741C3.90527 6.03473 4.24353 6.37301 4.66081 6.37301H12.4429C12.8601 6.37301 13.1984 6.03473 13.1984 5.61741C13.1984 5.2001 12.8601 4.86182 12.4429 4.86182Z" fill="#808080"/>
</svg>
