<svg width="23" height="24" viewBox="0 0 23 24" fill="none" xmlns="http://www.w3.org/2000/svg">
<g clip-path="url(#clip0_164_625)">
<path d="M11.5 0C5.14425 0 0 5.367 0 12C0 14.1048 0.526077 16.1605 1.52506 17.9736L0.0433426 22.775C-0.0600128 23.1097 0.0249176 23.4767 0.263214 23.7253C0.499229 23.9716 0.850006 24.0635 1.17393 23.9548L5.77527 22.4086C7.51283 23.451 9.4829 24 11.5 24C17.8557 24 23 18.633 23 12C23 5.36792 17.8566 0 11.5 0ZM11.5 22.125C9.67803 22.125 7.90203 21.5945 6.36399 20.5909C6.14271 20.4466 5.86792 20.4076 5.61225 20.4935L2.29066 21.6097L3.36037 18.1437C3.44144 17.8808 3.40722 17.5937 3.26684 17.3593C2.30523 15.7544 1.79687 13.9012 1.79687 12C1.79687 6.41711 6.14973 1.875 11.5 1.875C16.8503 1.875 21.2031 6.41711 21.2031 12C21.2031 17.5829 16.8503 22.125 11.5 22.125ZM12.623 12C12.623 12.6471 12.1203 13.1719 11.5 13.1719C10.8797 13.1719 10.3769 12.6471 10.3769 12C10.3769 11.3527 10.8797 10.8281 11.5 10.8281C12.1203 10.8281 12.623 11.3527 12.623 12ZM17.1152 12C17.1152 12.6471 16.6125 13.1719 15.9922 13.1719C15.3719 13.1719 14.8691 12.6471 14.8691 12C14.8691 11.3527 15.3719 10.8281 15.9922 10.8281C16.6125 10.8281 17.1152 11.3527 17.1152 12ZM8.13086 12C8.13086 12.6471 7.62812 13.1719 7.00781 13.1719C6.38768 13.1719 5.88476 12.6471 5.88476 12C5.88476 11.3527 6.38768 10.8281 7.00781 10.8281C7.62812 10.8281 8.13086 11.3527 8.13086 12Z" fill="#808080"/>
</g>
<defs>
<clipPath id="clip0_164_625">
<rect width="23" height="24" fill="white"/>
</clipPath>
</defs>
</svg>
