<svg width="23" height="24" viewBox="0 0 23 24" fill="none" xmlns="http://www.w3.org/2000/svg">
<path d="M21.0257 2.76006L20.3453 2.05006C19.3198 0.980059 17.6428 0.980059 16.6173 2.05006L6.73692 12.3801C6.459 12.6701 6.2865 13.0501 6.24817 13.4601L5.98942 16.3901C5.96067 16.7601 6.08525 17.1201 6.33442 17.3901C6.56442 17.6301 6.8615 17.7601 7.17775 17.7601H7.28317L10.0911 17.4901C10.484 17.4501 10.8482 17.2701 11.1261 16.9801L21.0161 6.66006C21.5144 6.14006 21.7923 5.45006 21.7923 4.72006C21.7923 3.99006 21.5144 3.29006 21.0161 2.78006L21.0257 2.76006ZM10.1198 15.9101C10.1198 15.9101 10.024 15.9801 9.97609 15.9801L7.45567 16.2201L7.68567 13.5901C7.68567 13.5301 7.71442 13.4801 7.75275 13.4301L15.7836 5.05006L18.1507 7.52006L10.1198 15.9001V15.9101ZM20.0098 5.59006L19.1665 6.47006L16.7994 4.00006L17.6428 3.12006C17.8728 2.88006 18.1794 2.75006 18.4861 2.75006C18.7928 2.75006 19.0994 2.87006 19.3294 3.12006L20.0098 3.83006C20.2398 4.07006 20.3644 4.38006 20.3644 4.71006C20.3644 5.04006 20.2398 5.36006 20.0098 5.59006ZM19.8853 13.1901V19.0001C19.8853 21.0701 18.2753 22.7501 16.2915 22.7501H4.7915C2.80775 22.7501 1.19775 21.0701 1.19775 19.0001V7.00006C1.19775 4.93006 2.80775 3.25006 4.7915 3.25006H10.3594C10.7523 3.25006 11.0782 3.59006 11.0782 4.00006C11.0782 4.41006 10.7523 4.75006 10.3594 4.75006H4.7915C3.60317 4.75006 2.63525 5.76006 2.63525 7.00006V19.0001C2.63525 20.2401 3.60317 21.2501 4.7915 21.2501H16.2915C17.4798 21.2501 18.4478 20.2401 18.4478 19.0001V13.1901C18.4478 12.7801 18.7736 12.4401 19.1665 12.4401C19.5594 12.4401 19.8853 12.7801 19.8853 13.1901Z" fill="#808080"/>
</svg>
