<svg width="51" height="51" viewBox="0 0 51 51" fill="none" xmlns="http://www.w3.org/2000/svg">
<g id="Book Consultation" filter="url(#filter0_d_5_63)">
<path d="M46.3611 21.1806C46.3611 9.48286 36.8782 0 25.1805 0H24.0539C12.9784 0 3.99997 8.97845 3.99997 20.0539V21.1805C3.99997 32.8782 13.4828 42.3611 25.1805 42.3611C36.8782 42.3611 46.3611 32.8783 46.3611 21.1806Z" fill="white" shape-rendering="crispEdges"/>
<path d="M45.8611 21.1806C45.8611 9.759 36.6021 0.5 25.1805 0.5H24.0539C13.2546 0.5 4.49997 9.25459 4.49997 20.0539V21.1805C4.49997 32.6021 13.759 41.8611 25.1805 41.8611C36.6021 41.8611 45.8611 32.6021 45.8611 21.1806Z" stroke="#CFCFCF" stroke-opacity="0.5" shape-rendering="crispEdges"/>
<g id="Group 1632">
<path id="Vector" d="M16.0108 21.0329L22.5733 15.473C22.7501 15.3283 22.9869 15.2482 23.2327 15.25C23.4785 15.2518 23.7137 15.3354 23.8875 15.4826C24.0613 15.6299 24.1599 15.8291 24.162 16.0374C24.1642 16.2456 24.0697 16.4463 23.8989 16.5961L18.9367 20.8001H35.4236C35.6722 20.8001 35.9107 20.8838 36.0865 21.0328C36.2623 21.1817 36.3611 21.3838 36.3611 21.5944C36.3611 21.8051 36.2623 22.0071 36.0865 22.156C35.9107 22.305 35.6722 22.3887 35.4236 22.3887H18.9367L23.8989 26.5928C23.9884 26.666 24.0599 26.7537 24.109 26.8506C24.1581 26.9475 24.184 27.0517 24.1851 27.1572C24.1862 27.2626 24.1624 27.3672 24.1153 27.4648C24.0682 27.5624 23.9985 27.6511 23.9105 27.7257C23.8225 27.8003 23.7178 27.8593 23.6026 27.8992C23.4874 27.9391 23.3639 27.9592 23.2395 27.9583C23.115 27.9574 22.992 27.9355 22.8776 27.8938C22.7632 27.8522 22.6598 27.7917 22.5733 27.7159L16.0108 22.156C15.835 22.007 15.7363 21.805 15.7363 21.5944C15.7363 21.3838 15.835 21.1818 16.0108 21.0329Z" fill="#2EB3D6"/>
</g>
</g>
<defs>
<filter id="filter0_d_5_63" x="-11" y="-15" width="72.3611" height="72.3611" filterUnits="userSpaceOnUse" color-interpolation-filters="sRGB">
<feFlood flood-opacity="0" result="BackgroundImageFix"/>
<feColorMatrix in="SourceAlpha" type="matrix" values="0 0 0 0 0 0 0 0 0 0 0 0 0 0 0 0 0 0 127 0" result="hardAlpha"/>
<feOffset dy="4"/>
<feGaussianBlur stdDeviation="2"/>
<feComposite in2="hardAlpha" operator="out"/>
<feColorMatrix type="matrix" values="0 0 0 0 0 0 0 0 0 0 0 0 0 0 0 0 0 0 0.1 0"/>
<feBlend mode="normal" in2="BackgroundImageFix" result="effect1_dropShadow_5_63"/>
<feBlend mode="normal" in="SourceGraphic" in2="effect1_dropShadow_5_63" result="shape"/>
</filter>
</defs>
</svg>
