<svg width="21" height="21" viewBox="0 0 21 21" fill="none" xmlns="http://www.w3.org/2000/svg">
<path id="Vector" fill-rule="evenodd" clip-rule="evenodd" d="M8.30443 0.787209C9.53763 -0.0622889 11.1624 -0.0622889 12.3956 0.787209L19.1231 5.42152C20.11 6.10133 20.7 7.22765 20.7 8.43154V17.203C20.7 19.2172 19.0782 20.8501 17.0775 20.8501H3.6225C1.62185 20.8501 0 19.2172 0 17.203V8.43154C0 7.22765 0.590074 6.10133 1.57694 5.42152L8.30443 0.787209ZM7.7625 16.1609C7.4767 16.1609 7.245 16.3942 7.245 16.6819C7.245 16.9697 7.4767 17.203 7.7625 17.203H12.9375C13.2233 17.203 13.455 16.9697 13.455 16.6819C13.455 16.3942 13.2233 16.1609 12.9375 16.1609H7.7625Z" fill="black"/>
</svg>
