<svg width="20" height="23" viewBox="0 0 20 23" fill="none" xmlns="http://www.w3.org/2000/svg">
<g id="Group 1000005247">
<path id="Vector" d="M10.1491 11.0791C11.6712 11.0791 12.9892 10.5332 14.0661 9.45616C15.143 8.37927 15.6889 7.06163 15.6889 5.53939C15.6889 4.01767 15.143 2.69985 14.0659 1.62261C12.9888 0.545902 11.671 0 10.1491 0C8.62687 0 7.30923 0.545902 6.23234 1.62279C5.15545 2.69968 4.60938 4.01749 4.60938 5.53939C4.60938 7.06163 5.15545 8.37945 6.23252 9.45633C7.30958 10.533 8.6274 11.0791 10.1491 11.0791Z" fill="#CFCFCF"/>
<path id="Vector_2" d="M19.8426 17.6854C19.8115 17.2373 19.7487 16.7484 19.6562 16.2321C19.5629 15.712 19.4427 15.2203 19.2988 14.771C19.1501 14.3065 18.948 13.8478 18.6981 13.4082C18.4388 12.952 18.1341 12.5547 17.7923 12.2278C17.4349 11.8858 16.9972 11.6108 16.4912 11.4103C15.9869 11.2107 15.428 11.1097 14.8301 11.1097C14.5953 11.1097 14.3683 11.206 13.9298 11.4915C13.6599 11.6675 13.3442 11.8711 12.9919 12.0962C12.6906 12.2882 12.2824 12.468 11.7783 12.6309C11.2864 12.79 10.787 12.8707 10.2941 12.8707C9.80119 12.8707 9.30197 12.79 8.80959 12.6309C8.30597 12.4682 7.89782 12.2883 7.59688 12.0964C7.24786 11.8733 6.93201 11.6698 6.65809 11.4913C6.2201 11.2058 5.99286 11.1095 5.75808 11.1095C5.16006 11.1095 4.60135 11.2107 4.09721 11.4104C3.59149 11.6107 3.15368 11.8856 2.79589 12.228C2.45424 12.5551 2.14944 12.9522 1.89044 13.4082C1.64074 13.8478 1.43859 14.3063 1.28979 14.7711C1.14608 15.2205 1.02588 15.712 0.932524 16.2321C0.840049 16.7477 0.777229 17.2367 0.74617 17.6859C0.715637 18.126 0.700195 18.5828 0.700195 19.0441C0.700195 20.2447 1.08185 21.2167 1.83446 21.9335C2.57778 22.6408 3.56131 22.9997 4.75735 22.9997H15.8319C17.0279 22.9997 18.0111 22.641 18.7546 21.9335C19.5074 21.2172 19.8891 20.2451 19.8891 19.0439C19.8889 18.5805 19.8733 18.1234 19.8426 17.6854Z" fill="#CFCFCF"/>
</g>
</svg>
