<svg width="24" height="23" viewBox="0 0 24 23" fill="none" xmlns="http://www.w3.org/2000/svg">
<g id="Group 1000005246">
<path id="Vector" d="M10.2836 23C12.0193 23 13.4711 21.7627 13.8046 20.125H6.7627C7.09628 21.7627 8.54816 23 10.2836 23Z" fill="#CFCFCF"/>
<path id="Vector_2" d="M17.5438 13.8919C17.5189 13.8919 17.4959 13.8958 17.471 13.8958C13.2438 13.8958 9.80442 10.4564 9.80442 6.22923C9.80442 4.56834 10.341 3.03416 11.2419 1.7767V0.958275C11.2419 0.428337 10.8125 0 10.2835 0C9.75459 0 9.3252 0.428337 9.3252 0.958275V1.99341C6.07924 2.46105 3.5752 5.2527 3.5752 8.625V11.2968C3.5752 13.1933 2.74432 14.9836 1.28664 16.2159C0.913925 16.5351 0.700195 16.9989 0.700195 17.4895C0.700195 18.4145 1.45246 19.1667 2.37722 19.1667H18.1897C19.1147 19.1667 19.8669 18.4145 19.8669 17.4895C19.8669 16.9989 19.6532 16.5351 19.2708 16.2084C18.5156 15.5691 17.933 14.7737 17.5438 13.8919Z" fill="#CFCFCF"/>
<path id="Vector_3" d="M17.4712 0C14.0366 0 11.2422 2.79446 11.2422 6.22923C11.2422 9.66382 14.0366 12.4583 17.4712 12.4583C20.906 12.4583 23.7005 9.66382 23.7005 6.22923C23.7005 2.79446 20.906 0 17.4712 0ZM18.4297 8.38548C18.4297 8.78223 18.1077 9.10423 17.7109 9.10423C17.3142 9.10423 16.9922 8.78223 16.9922 8.38548V5.27078H16.513C16.1162 5.27078 15.7942 4.94878 15.7942 4.55203C15.7942 4.15527 16.1162 3.83328 16.513 3.83328H17.7109C18.1077 3.83328 18.4297 4.15527 18.4297 4.55203V8.38548Z" fill="#CFCFCF"/>
</g>
</svg>
