<svg width="24" height="23" viewBox="0 0 24 23" fill="none" xmlns="http://www.w3.org/2000/svg">
<g id="Group">
<g id="Group_2">
<path id="Vector" d="M12.2002 0C5.85938 0 0.700195 5.15919 0.700195 11.5V22.2812C0.700195 22.678 1.0222 23 1.41895 23H12.2002C18.541 23 23.7002 17.8408 23.7002 11.5C23.7002 5.15919 18.541 0 12.2002 0ZM12.9189 14.375H7.16895C6.7722 14.375 6.4502 14.053 6.4502 13.6562C6.4502 13.2595 6.7722 12.9375 7.16895 12.9375H12.9189C13.3157 12.9375 13.6377 13.2595 13.6377 13.6562C13.6377 14.053 13.3157 14.375 12.9189 14.375ZM17.2314 10.0625H7.16895C6.7722 10.0625 6.4502 9.7405 6.4502 9.34375C6.4502 8.947 6.7722 8.625 7.16895 8.625H17.2314C17.6282 8.625 17.9502 8.947 17.9502 9.34375C17.9502 9.7405 17.6282 10.0625 17.2314 10.0625Z" fill="#CFCFCF"/>
</g>
</g>
</svg>
