<svg width="150" height="50" viewBox="0 0 150 50" fill="none" xmlns="http://www.w3.org/2000/svg">
<g id="Group 1000005368">
<g id="Rectangle 10">
<rect width="150" height="50" rx="25" fill="white"/>
<rect x="0.5" y="0.5" width="149" height="49" rx="24.5" stroke="#CFCFCF" stroke-opacity="0.5"/>
</g>
<g id="Group">
<g id="Group_2">
<path id="Vector" d="M117 15C111.486 15 107 19.4863 107 25V34.375C107 34.72 107.28 35 107.625 35H117C122.514 35 127 30.5138 127 25C127 19.4863 122.514 15 117 15ZM117.625 27.5H112.625C112.28 27.5 112 27.22 112 26.875C112 26.53 112.28 26.25 112.625 26.25H117.625C117.97 26.25 118.25 26.53 118.25 26.875C118.25 27.22 117.97 27.5 117.625 27.5ZM121.375 23.75H112.625C112.28 23.75 112 23.47 112 23.125C112 22.78 112.28 22.5 112.625 22.5H121.375C121.72 22.5 122 22.78 122 23.125C122 23.47 121.72 23.75 121.375 23.75Z" fill="#2EB3D6"/>
</g>
</g>
<g id="Rectangle 11">
<rect width="82" height="50" rx="25" fill="#2EB3D6"/>
<rect x="0.5" y="0.5" width="81" height="49" rx="24.5" stroke="#2EB3D6" stroke-opacity="0.839216"/>
</g>
<g id="_x32_7-Phone">
<path id="Vector_2" d="M50.0325 29.7864L47.1285 27.7574C46.7487 27.4926 46.3048 27.3529 45.8445 27.3529C45.1126 27.3529 44.4256 27.7119 44.0071 28.3125L43.3329 29.2786C42.2031 28.5208 40.9424 27.4628 39.7405 26.2612C38.5389 25.0595 37.4811 23.7988 36.7235 22.669L37.6892 21.9948C38.1815 21.6521 38.5102 21.1386 38.6146 20.5494C38.7188 19.9606 38.5875 19.3657 38.2443 18.8732L36.2157 15.9692C35.7916 15.3625 35.1071 15 34.3846 15C34.1342 15 33.8887 15.0442 33.6549 15.1305C33.3894 15.2285 33.1421 15.3489 32.8996 15.5012L32.4986 15.7836C32.3983 15.8615 32.3051 15.9469 32.2158 16.0362C31.7266 16.5251 31.3795 17.1441 31.1836 17.876C30.3477 21.0095 32.4185 25.7477 36.3363 29.6656C39.6265 32.9557 43.5792 34.9996 46.6515 35C47.1777 35 47.6739 34.9387 48.1261 34.8179C48.858 34.6222 49.477 34.2751 49.9664 33.7857C50.0553 33.6968 50.1402 33.6036 50.2312 33.4858L50.5138 33.0826C50.6519 32.862 50.7721 32.6147 50.8715 32.3472C51.2131 31.4236 50.8682 30.3703 50.0325 29.7864Z" fill="white"/>
</g>
</g>
</svg>
