<svg width="29" height="29" viewBox="0 0 29 29" fill="none" xmlns="http://www.w3.org/2000/svg">
<g clip-path="url(#clip0_20_3487)">
<path d="M19.9967 21.2659C20.6502 21.2659 21.1799 20.7361 21.1799 20.0826C21.1799 19.4292 20.6502 18.8994 19.9967 18.8994C19.3432 18.8994 18.8135 19.4292 18.8135 20.0826C18.8135 20.7361 19.3432 21.2659 19.9967 21.2659Z" fill="#2EB3D6"/>
<path d="M29.0024 16.7192C29.0032 15.8847 28.8193 15.0603 28.4637 14.3054C28.1081 13.5504 27.5897 12.8836 26.9457 12.3528C26.7636 11.2885 26.4447 10.2523 25.997 9.26982C26.6077 8.78191 27.0011 8.07264 27.0916 7.29625C27.1821 6.51985 26.9624 5.73911 26.4804 5.12381C25.9983 4.5085 25.2928 4.10839 24.5173 4.01048C23.7418 3.91256 22.959 4.12476 22.3392 4.60094C21.452 3.89703 20.4741 3.31577 19.4318 2.87283C18.981 2.07679 18.344 1.40179 17.5754 0.905581C16.8069 0.409369 15.9295 0.106708 15.0185 0.0234861C14.1075 -0.0597361 13.1898 0.0789574 12.344 0.427703C11.4983 0.776449 10.7496 1.32487 10.162 2.02605C9.64289 1.60922 8.99867 1.37912 8.33296 1.37279C7.66725 1.36646 7.01876 1.58425 6.49183 1.99114C5.9649 2.39802 5.59016 2.97034 5.42791 3.61601C5.26566 4.26168 5.32533 4.94315 5.59732 5.5508C4.93085 6.21368 4.34023 6.94868 3.83636 7.74222C3.7548 7.73656 3.67211 7.73316 3.58885 7.73316C2.78937 7.73319 2.01274 7.99979 1.3818 8.49078C0.75087 8.98178 0.301666 9.66913 0.105259 10.4441C-0.0911478 11.2191 -0.0235432 12.0374 0.297378 12.7696C0.618298 13.5019 1.17421 14.1062 1.87717 14.487V14.5C1.87338 17.4333 2.89522 20.2756 4.76584 22.5351C4.7283 22.8006 4.70938 23.0684 4.7092 23.3365C4.70963 24.4818 5.05726 25.6001 5.70622 26.5438C6.35518 27.4875 7.27497 28.2123 8.34427 28.6225C9.41356 29.0328 10.5821 29.1093 11.6958 28.8419C12.8094 28.5745 13.8158 27.9757 14.5822 27.1246C16.8944 27.1138 19.1588 26.465 21.1259 25.2498C21.6161 25.7984 22.2927 26.1453 23.0242 26.223C23.7558 26.3008 24.4902 26.1039 25.0847 25.6707C25.6793 25.2374 26.0916 24.5986 26.2417 23.8784C26.3918 23.1582 26.2688 22.4079 25.8968 21.7732C26.831 21.3002 27.6159 20.5775 28.1641 19.6853C28.7123 18.7931 29.0025 17.7664 29.0024 16.7192ZM7.6092 7.30043C7.7502 7.14446 7.94737 7.05087 8.15736 7.04025C8.36735 7.02963 8.57296 7.10284 8.72898 7.24379C8.93103 7.42456 9.18631 7.53484 9.45643 7.55806C9.72655 7.58127 9.9969 7.51616 10.2268 7.37252C10.4568 7.22887 10.6339 7.01446 10.7315 6.76153C10.8291 6.50859 10.8419 6.2308 10.768 5.96994C10.7374 5.86915 10.7272 5.76327 10.738 5.65849C10.7488 5.55371 10.7803 5.45213 10.8308 5.35967C10.8813 5.26722 10.9496 5.18574 11.0319 5.12001C11.1142 5.05427 11.2088 5.00559 11.3101 4.97681C11.4115 4.94802 11.5175 4.93972 11.6221 4.95237C11.7266 4.96502 11.8276 4.99838 11.9192 5.0505C12.0107 5.10261 12.0909 5.17245 12.1552 5.25591C12.2194 5.33938 12.2664 5.43481 12.2934 5.53664C12.41 5.94677 12.4328 6.37793 12.3599 6.79806C12.2871 7.2182 12.1205 7.61652 11.8726 7.96344C11.6246 8.31036 11.3017 8.59696 10.9278 8.80194C10.5539 9.00692 10.1386 9.12503 9.71283 9.14748C9.66185 9.14748 9.61144 9.15144 9.56103 9.15144C8.8605 9.1524 8.18469 8.89253 7.66527 8.42248C7.58775 8.35259 7.52479 8.26808 7.47999 8.17381C7.4352 8.07953 7.40947 7.97734 7.40426 7.8731C7.39905 7.76885 7.41447 7.6646 7.44964 7.56633C7.48481 7.46806 7.53903 7.3777 7.6092 7.30043ZM10.2147 21.9517C9.26591 21.9518 8.33842 21.6705 7.5495 21.1435C6.76058 20.6165 6.14566 19.8674 5.78251 18.9908C5.41936 18.1143 5.32428 17.1498 5.50931 16.2193C5.69433 15.2887 6.15115 14.434 6.82198 13.763C7.49282 13.0921 8.34754 12.6352 9.27806 12.4501C10.2086 12.2649 11.1731 12.3599 12.0497 12.723C12.9262 13.086 13.6754 13.7008 14.2025 14.4897C14.7296 15.2785 15.011 16.206 15.011 17.1548C15.0095 18.4262 14.5039 19.6452 13.605 20.5444C12.7061 21.4436 11.4873 21.9497 10.2158 21.9517H10.2147ZM19.9948 22.8517C19.447 22.8518 18.9114 22.6894 18.4558 22.3851C18.0002 22.0808 17.6452 21.6483 17.4354 21.1421C17.2257 20.636 17.1708 20.0791 17.2777 19.5417C17.3846 19.0044 17.6484 18.5108 18.0357 18.1235C18.4231 17.7361 18.9167 17.4723 19.454 17.3654C19.9914 17.2586 20.5483 17.3135 21.0544 17.5232C21.5606 17.7329 21.9931 18.088 22.2974 18.5435C22.6017 18.9991 22.7641 19.5347 22.764 20.0825C22.7631 20.8165 22.4712 21.5201 21.9523 22.0392C21.4334 22.5583 20.7299 22.8505 19.9959 22.8517H19.9948ZM19.3927 13.7365C18.7024 13.7367 18.0275 13.5322 17.4534 13.1488C16.8792 12.7655 16.4317 12.2205 16.1674 11.5827C15.903 10.945 15.8338 10.2432 15.9683 9.5661C16.1028 8.88899 16.4352 8.26699 16.9232 7.77877C17.4113 7.29054 18.0332 6.95802 18.7103 6.82326C19.3873 6.6885 20.0891 6.75755 20.727 7.02168C21.3648 7.28581 21.9099 7.73315 22.2935 8.30714C22.677 8.88112 22.8818 9.55596 22.8818 10.2463C22.8807 11.1714 22.5128 12.0584 21.8588 12.7127C21.2047 13.367 20.3179 13.7352 19.3927 13.7365Z" fill="#2EB3D6"/>
<path d="M19.3935 12.1508C20.4452 12.1508 21.2978 11.2982 21.2978 10.2465C21.2978 9.19485 20.4452 8.34229 19.3935 8.34229C18.3418 8.34229 17.4893 9.19485 17.4893 10.2465C17.4893 11.2982 18.3418 12.1508 19.3935 12.1508Z" fill="#2EB3D6"/>
<path d="M10.2168 20.3658C11.9902 20.3658 13.4278 18.9282 13.4278 17.1548C13.4278 15.3814 11.9902 13.9438 10.2168 13.9438C8.44345 13.9438 7.00586 15.3814 7.00586 17.1548C7.00586 18.9282 8.44345 20.3658 10.2168 20.3658Z" fill="#2EB3D6"/>
</g>
<defs>
<clipPath id="clip0_20_3487">
<rect width="29" height="29" fill="white"/>
</clipPath>
</defs>
</svg>
