<svg width="84" height="29" viewBox="0 0 84 29" fill="none" xmlns="http://www.w3.org/2000/svg">
<rect x="0.526367" y="0.5" width="82.9474" height="28" rx="9.5" fill="white" stroke="#2EB3D6"/>
<path d="M0.526367 10C0.526367 4.7533 4.77966 0.5 10.0264 0.5H41.5V28.5H10.0264C4.77967 28.5 0.526367 24.2467 0.526367 19V10Z" fill="#2EB3D6" stroke="#2EB3D6"/>
<g clip-path="url(#clip0_60_2614)">
<path d="M29.6391 21.1507H17.3915C16.8867 21.1507 16.4775 20.7416 16.4775 20.2368C16.4775 19.732 16.8867 19.3229 17.3915 19.3229H29.6388C30.1436 19.3229 30.5528 19.732 30.5528 20.2368C30.5528 20.7416 30.1439 21.1507 29.6391 21.1507Z" fill="white"/>
<path d="M29.6391 15.4141H17.3915C16.8867 15.4141 16.4775 15.0049 16.4775 14.5001C16.4775 13.9954 16.8867 13.5862 17.3915 13.5862H29.6388C30.1436 13.5862 30.5528 13.9954 30.5528 14.5001C30.5531 15.0049 30.1439 15.4141 29.6391 15.4141Z" fill="white"/>
<path d="M29.6391 9.67741H17.3915C16.8867 9.67741 16.4775 9.26828 16.4775 8.76349C16.4775 8.25871 16.8867 7.84958 17.3915 7.84958H29.6388C30.1436 7.84958 30.5528 8.25871 30.5528 8.76349C30.5528 9.26828 30.1439 9.67741 29.6391 9.67741Z" fill="white"/>
<path d="M13.4642 10.0616C14.1421 10.0616 14.6916 9.51204 14.6916 8.83417C14.6916 8.1563 14.1421 7.60678 13.4642 7.60678C12.7863 7.60678 12.2368 8.1563 12.2368 8.83417C12.2368 9.51204 12.7863 10.0616 13.4642 10.0616Z" fill="white"/>
<path d="M13.4642 15.7275C14.1421 15.7275 14.6916 15.178 14.6916 14.5001C14.6916 13.8223 14.1421 13.2728 13.4642 13.2728C12.7863 13.2728 12.2368 13.8223 12.2368 14.5001C12.2368 15.178 12.7863 15.7275 13.4642 15.7275Z" fill="white"/>
<path d="M13.4642 21.3935C14.1421 21.3935 14.6916 20.844 14.6916 20.1661C14.6916 19.4883 14.1421 18.9387 13.4642 18.9387C12.7863 18.9387 12.2368 19.4883 12.2368 20.1661C12.2368 20.844 12.7863 21.3935 13.4642 21.3935Z" fill="white"/>
</g>
<path d="M71.3386 9.96347C71.2294 8.14734 69.7129 6.7245 67.8864 6.7245H66.9972V6.0333C66.9972 5.65176 66.6875 5.3421 66.306 5.3421C65.9245 5.3421 65.6148 5.65176 65.6148 6.0333V6.7245H60.0852V6.0333C60.0852 5.65176 59.7755 5.3421 59.394 5.3421C59.0124 5.3421 58.7028 5.65176 58.7028 6.0333V6.7245H57.8136C55.9867 6.7245 54.4702 8.14734 54.3614 9.96347C54.1564 13.3794 54.1602 16.8444 54.3728 20.262C54.4806 21.9976 55.8709 23.388 57.6065 23.4958C59.346 23.604 61.0978 23.6579 62.8496 23.6579C64.6012 23.6579 66.3533 23.604 68.0928 23.4958C69.8284 23.388 71.2187 21.9976 71.3265 20.262C71.5394 16.8461 71.5432 13.3815 71.3386 9.96347ZM69.9472 20.1763C69.8823 21.2176 69.0483 22.0515 68.0074 22.1162C64.5853 22.3287 61.1147 22.3287 57.6926 22.1162C56.6513 22.0512 55.8174 21.2173 55.7527 20.1763C55.5893 17.5487 55.5558 14.8935 55.6432 12.2541H70.0571C70.1442 14.8945 70.1107 17.5497 69.9472 20.1763ZM59.394 9.48931C59.7755 9.48931 60.0852 9.17965 60.0852 8.79811V8.10691H65.6148V8.79811C65.6148 9.17965 65.9245 9.48931 66.306 9.48931C66.6875 9.48931 66.9972 9.17965 66.9972 8.79811V8.10691H67.8864C68.983 8.10691 69.8933 8.95881 69.9586 10.0461C69.9749 10.3205 69.9818 10.5966 69.9953 10.8717H55.7047C55.7185 10.5966 55.7251 10.3205 55.7413 10.0461C55.8067 8.95881 56.7166 8.10691 57.8136 8.10691H58.7028V8.79811C58.7028 9.17965 59.0124 9.48931 59.394 9.48931Z" fill="#A19D9D"/>
<path d="M59.3942 16.4013C59.9668 16.4013 60.431 15.9371 60.431 15.3645C60.431 14.7919 59.9668 14.3277 59.3942 14.3277C58.8216 14.3277 58.3574 14.7919 58.3574 15.3645C58.3574 15.9371 58.8216 16.4013 59.3942 16.4013Z" fill="#A19D9D"/>
<path d="M62.8503 16.4013C63.4229 16.4013 63.8871 15.9371 63.8871 15.3645C63.8871 14.7919 63.4229 14.3277 62.8503 14.3277C62.2777 14.3277 61.8135 14.7919 61.8135 15.3645C61.8135 15.9371 62.2777 16.4013 62.8503 16.4013Z" fill="#A19D9D"/>
<path d="M59.3942 19.8573C59.9668 19.8573 60.431 19.3931 60.431 18.8205C60.431 18.2479 59.9668 17.7837 59.3942 17.7837C58.8216 17.7837 58.3574 18.2479 58.3574 18.8205C58.3574 19.3931 58.8216 19.8573 59.3942 19.8573Z" fill="#A19D9D"/>
<path d="M66.3058 16.4013C66.8785 16.4013 67.3426 15.9371 67.3426 15.3645C67.3426 14.7919 66.8785 14.3277 66.3058 14.3277C65.7332 14.3277 65.269 14.7919 65.269 15.3645C65.269 15.9371 65.7332 16.4013 66.3058 16.4013Z" fill="#A19D9D"/>
<path d="M66.3058 19.8573C66.8785 19.8573 67.3426 19.3931 67.3426 18.8205C67.3426 18.2479 66.8785 17.7837 66.3058 17.7837C65.7332 17.7837 65.269 18.2479 65.269 18.8205C65.269 19.3931 65.7332 19.8573 66.3058 19.8573Z" fill="#A19D9D"/>
<path d="M62.8503 19.8573C63.4229 19.8573 63.8871 19.3931 63.8871 18.8205C63.8871 18.2479 63.4229 17.7837 62.8503 17.7837C62.2777 17.7837 61.8135 18.2479 61.8135 18.8205C61.8135 19.3931 62.2777 19.8573 62.8503 19.8573Z" fill="#A19D9D"/>
<defs>
<clipPath id="clip0_60_2614">
<rect width="18.3158" height="18.3158" fill="white" transform="translate(12.2368 5.3421)"/>
</clipPath>
</defs>
</svg>
