<svg width="32" height="32" viewBox="0 0 32 32" fill="none" xmlns="http://www.w3.org/2000/svg">
<g id="Group 1657">
<circle id="Ellipse 18" cx="15.745" cy="15.745" r="15.245" fill="#2EB3D6" stroke="#2EB3D6"/>
<path id="Vector" d="M17.8064 16.7072C17.4159 16.3167 17.4159 15.6835 17.8064 15.293L21.7719 11.3273C22.076 11.0233 22.076 10.5319 21.7719 10.228C21.468 9.92401 20.9766 9.92401 20.6726 10.228L16.7071 14.1936C16.3165 14.5842 15.6833 14.5842 15.2928 14.1936L11.3274 10.228C11.0233 9.92401 10.532 9.92401 10.2281 10.228C9.92398 10.5319 9.92398 11.0233 10.2281 11.3273L14.1936 15.293C14.5841 15.6835 14.5841 16.3167 14.1936 16.7072L10.2281 20.6729C9.92398 20.9768 9.92398 21.4683 10.2281 21.7722C10.3795 21.9238 10.5787 22 10.7777 22C10.9767 22 11.1758 21.9238 11.3274 21.7722L15.2928 17.8066C15.6833 17.416 16.3165 17.416 16.7071 17.8066L20.6726 21.7722C20.8242 21.9238 21.0233 22 21.2223 22C21.4213 22 21.6203 21.9238 21.7719 21.7722C22.076 21.4683 22.076 20.9768 21.7719 20.6729L17.8064 16.7072Z" fill="white"/>
</g>
</svg>
