<svg width="29" height="29" viewBox="0 0 29 29" fill="none" xmlns="http://www.w3.org/2000/svg">
<path d="M21.206 5.12399L23.7175 0.789511H26.1076L24.6757 3.26958H27.3634L22.2174 8.95069L23.577 5.12399H21.206ZM7.79412 18.1113H5.10641L6.53828 15.6312H4.14822L1.63672 19.9657H4.00764L2.64804 23.7924L7.79412 18.1113ZM25.1185 12.7763C25.2538 11.3421 25.4681 9.72995 25.1505 8.12798C25.0859 7.80247 24.9998 7.48523 24.8942 7.17665L22.57 9.74241C22.6336 10.2686 22.1534 10.8122 21.7646 11.0201C22.3749 11.6505 22.3899 12.7249 22.1788 13.3355C21.977 13.9209 21.5301 14.398 20.9649 14.6414C20.962 15.0486 20.876 15.4444 20.7056 15.8077C20.3133 16.6429 19.5355 17.2313 18.5083 17.4722C18.2766 17.9051 17.9119 18.2661 17.4528 18.4869C17.1298 18.6425 16.7809 18.7182 16.435 18.7182C15.8379 18.7182 15.2476 18.4938 14.8007 18.0668C14.7224 17.9922 14.6782 17.8885 14.6782 17.7801V4.36705C14.6782 4.25864 14.7224 4.15521 14.8007 4.08039C15.507 3.4058 16.5726 3.23707 17.4528 3.66051C17.9118 3.88135 18.2765 4.24221 18.5081 4.67494C19.136 4.82244 19.671 5.09981 20.0813 5.48343L21.5709 2.91268C21.0758 2.55925 20.5461 2.24257 19.9911 1.96577C18.1305 1.03788 16.0593 0.581696 14.0033 0.625989C11.9624 0.669942 9.93638 1.20712 8.14654 2.26574C5.70284 3.71109 3.8384 6.07465 3.22056 9.219C2.81009 11.3086 3.19496 13.0825 3.84089 14.8383H7.25014L7.24845 14.8153C6.53704 14.4586 6.01068 13.8132 5.7631 12.9902C5.49128 12.0859 5.59907 11.0881 6.05027 10.3056C5.87304 9.83428 5.86069 9.30837 6.03226 8.81203C6.23401 8.22665 6.68096 7.74957 7.24612 7.50618C7.24907 7.09899 7.3351 6.70319 7.50542 6.33989C7.89777 5.50456 8.67556 4.91629 9.7028 4.67534C9.93446 4.24244 10.2992 3.88147 10.7584 3.66057C11.0813 3.50498 11.4302 3.4293 11.7761 3.4293C12.3732 3.4293 12.9635 3.65371 13.4104 4.08073C13.4888 4.15527 13.5329 4.25903 13.5329 4.36739V17.7804C13.5329 17.8888 13.4887 17.9922 13.4104 18.0671C12.7041 18.7416 11.6385 18.9104 10.7584 18.4869C10.2993 18.2661 9.93463 17.9052 9.70297 17.4725C9.63166 17.4557 9.56153 17.4373 9.49266 17.4172L6.2284 21.0208C6.79141 23.0744 7.03378 25.4308 6.44211 28.3768H17.2179C17.6257 27.2406 18.1847 25.6613 19.107 25.3394C20.3017 24.9224 21.5611 25.3254 22.7479 25.4826C23.6046 25.5566 24.2496 25.5602 24.6289 25.249C25.3299 24.6736 25.1658 23.9267 25.0007 23.2014C24.9422 22.9436 24.9225 22.6876 25.0488 22.6019C25.4806 22.163 25.2808 21.5785 24.8588 21.4892C24.4427 21.3222 24.2404 21.1929 24.1976 21.1667C24.3868 21.0664 24.6473 21.0226 24.8544 20.9707C25.4467 20.8228 25.4623 20.4072 25.2503 19.9808C25.1258 19.7304 25.0197 19.159 25.1537 18.8854C25.5564 18.0641 27.1877 18.4739 27.2985 17.6268C27.3625 17.1386 27.1272 16.8608 26.8313 16.4023C25.7916 14.8111 25.1315 13.298 25.1183 12.7761L25.1185 12.7763ZM22.4537 5.91696H20.4598C20.5566 6.05414 20.6412 6.20022 20.7124 6.35462C20.856 6.66558 20.9392 6.99443 20.9626 7.33224C21.2569 7.47973 21.5194 7.67667 21.7437 7.91513L22.4536 5.9169L22.4537 5.91696ZM20.5255 10.8159C20.4299 11.013 20.5124 11.25 20.7098 11.3453C20.8608 11.4182 20.9961 11.5167 21.1128 11.6377C21.4821 12.0218 21.6034 12.573 21.4294 13.0767C21.3258 13.3775 21.1208 13.6335 20.8568 13.8035C20.7884 13.5447 20.6877 13.287 20.555 13.0358C20.4524 12.8422 20.2124 12.7682 20.0191 12.8706C19.8256 12.973 19.7512 13.213 19.8536 13.4065C20.2304 14.1189 20.2779 14.8518 19.9874 15.471C19.7593 15.9574 19.3397 16.3321 18.7805 16.5577C18.792 16.4242 18.792 16.2887 18.7799 16.1525C18.6939 15.1797 18.0035 14.3501 17.0627 14.0882C16.8519 14.0295 16.6332 14.1529 16.5743 14.3639C16.5153 14.5747 16.639 14.7934 16.85 14.8521C17.4749 15.026 17.933 15.5766 17.9903 16.2226C18.0474 16.8685 17.6935 17.4913 17.1091 17.7722C16.5737 18.03 15.9349 17.9573 15.471 17.5989V7.52618C15.471 6.94906 15.8369 6.27334 16.5142 6.15785C16.7301 6.12098 16.8751 5.91622 16.8383 5.70031C16.8014 5.48462 16.5964 5.3394 16.3807 5.37627C16.0232 5.43721 15.7191 5.58929 15.471 5.7975V4.54852C15.9349 4.19004 16.5737 4.11771 17.1091 4.37515C17.6935 4.65637 18.0474 5.27907 17.9903 5.92478C17.933 6.57071 17.4749 7.12165 16.85 7.29531C16.639 7.35399 16.5153 7.57268 16.5743 7.78372C16.6332 7.99448 16.8519 8.11818 17.0627 8.05916C18.0035 7.79737 18.6939 6.96793 18.7799 5.99524C18.792 5.85902 18.792 5.72348 18.7805 5.58997C19.3438 5.81744 19.766 6.19631 19.9926 6.68705C20.2773 7.30403 20.2282 8.03328 19.8536 8.74117C19.7513 8.93472 19.8256 9.17447 20.0191 9.27682C20.0781 9.30826 20.1414 9.32299 20.2039 9.32299C20.3461 9.32299 20.4835 9.2463 20.555 9.11166C20.7114 8.81594 20.8236 8.51535 20.8916 8.21566C21.7459 8.84505 22.1463 10.2235 20.7924 10.6022C20.6799 10.6284 20.5798 10.7037 20.5255 10.816L20.5255 10.8159ZM17.5751 11.0736C17.5751 10.7313 17.7274 10.4105 17.9925 10.1937C18.162 10.0553 18.1874 9.80551 18.0487 9.63593C17.9098 9.4664 17.66 9.44125 17.4907 9.57968C17.0405 9.94768 16.7823 10.492 16.7823 11.0736C16.7823 11.6551 17.0405 12.1997 17.4907 12.5675C17.5644 12.6275 17.6534 12.657 17.7416 12.657C17.856 12.657 17.9704 12.6071 18.0488 12.5112C18.1875 12.3417 18.1621 12.0919 17.9925 11.9535C17.7275 11.7367 17.5751 11.4162 17.5751 11.0736L17.5751 11.0736ZM9.19756 17.3184C8.41422 17.0199 7.82103 16.4914 7.49868 15.7929C7.47778 15.7476 7.45813 15.7019 7.43978 15.6558L6.47983 17.3184H9.19756ZM7.68565 11.3317C7.78121 11.1346 7.69874 10.8976 7.50135 10.8023C7.3504 10.7294 7.21497 10.6309 7.0984 10.5099C6.72905 10.1258 6.60778 9.57464 6.78173 9.07094C6.88532 8.77012 7.09036 8.5141 7.35436 8.34407C7.42279 8.60291 7.52344 8.86057 7.65614 9.11183C7.75878 9.30537 7.99876 9.3794 8.19208 9.27699C8.38562 9.17459 8.45993 8.93466 8.35753 8.74106C7.98075 8.02881 7.93329 7.29576 8.22374 6.67657C8.45189 6.19019 8.87148 5.81552 9.43064 5.58992C9.4192 5.72342 9.41914 5.85896 9.43126 5.99512C9.51724 6.96787 10.2077 7.79754 11.1485 8.05933C11.3593 8.11801 11.5779 7.99465 11.6369 7.78361C11.6959 7.57285 11.5722 7.35416 11.3612 7.29548C10.7363 7.12159 10.2782 6.57093 10.2208 5.92495C10.1637 5.27902 10.5176 4.65631 11.1021 4.37532C11.6375 4.1176 12.2763 4.19021 12.7401 4.54869V14.6214C12.7401 15.1985 12.3743 15.8742 11.697 15.9897C11.481 16.0266 11.3361 16.2313 11.373 16.4472C11.4098 16.6629 11.6149 16.8082 11.8305 16.7713C12.188 16.7103 12.4921 16.5583 12.7401 16.35V17.5991C12.2763 17.9576 11.6375 18.0299 11.1021 17.7725C10.5176 17.4912 10.1637 16.8685 10.2208 16.2228C10.2782 15.5769 10.7363 15.026 11.3612 14.8523C11.5722 14.7936 11.6959 14.5749 11.6369 14.3639C11.5779 14.1531 11.3593 14.0294 11.1485 14.0884C10.2077 14.3502 9.51724 15.1797 9.43126 16.1524C9.41914 16.2886 9.4192 16.4241 9.43064 16.5576C8.86735 16.3302 8.44515 15.9513 8.21859 15.4606C7.93385 14.8436 7.98296 14.1143 8.35753 13.4064C8.45988 13.2129 8.38562 12.9731 8.19208 12.8708C8.13311 12.8394 8.06979 12.8246 8.00726 12.8246C7.86503 12.8246 7.72768 12.9013 7.65614 13.0359C7.49982 13.3317 7.38755 13.6323 7.31959 13.9319C6.94831 13.6584 6.67065 13.254 6.52288 12.7616C6.35596 12.2079 6.37221 11.6114 6.55771 11.091C6.73245 11.2658 6.93369 11.4087 7.15652 11.5161C7.35363 11.6117 7.59033 11.5289 7.6856 11.3315L7.68565 11.3317ZM10.6361 11.074C10.6361 11.4166 10.4837 11.7371 10.2186 11.9539C10.0491 12.0923 10.0237 12.3421 10.1624 12.5116C10.2408 12.6075 10.3551 12.6574 10.4695 12.6574C10.5577 12.6574 10.6467 12.628 10.7205 12.5679C11.1706 12.2001 11.4289 11.6554 11.4289 11.074C11.4289 10.4925 11.1706 9.94807 10.7205 9.58008C10.5512 9.44165 10.3014 9.4668 10.1624 9.63632C10.0237 9.80585 10.0492 10.0557 10.2187 10.1941C10.4838 10.4109 10.6361 10.7317 10.6361 11.074L10.6361 11.074Z" fill="#2EB3D6"/>
</svg>
