<svg width="26" height="26" viewBox="0 0 26 26" fill="none" xmlns="http://www.w3.org/2000/svg">
<path d="M21.8437 15.8125C21.8437 16.0906 21.7613 16.3625 21.6068 16.5938C21.4522 16.825 21.2326 17.0053 20.9756 17.1117C20.7187 17.2181 20.4359 17.246 20.1632 17.1917C19.8904 17.1375 19.6398 17.0035 19.4431 16.8069C19.2465 16.6102 19.1125 16.3596 19.0583 16.0868C19.004 15.8141 19.0319 15.5313 19.1383 15.2744C19.2447 15.0174 19.425 14.7978 19.6562 14.6432C19.8875 14.4887 20.1594 14.4062 20.4375 14.4062C20.8105 14.4062 21.1681 14.5544 21.4319 14.8181C21.6956 15.0819 21.8437 15.4395 21.8437 15.8125ZM21.3105 20.4168C21.1046 21.7443 20.4311 22.9546 19.4116 23.8293C18.392 24.7041 17.0934 25.1858 15.75 25.1875H12.9375C11.4461 25.1859 10.0163 24.5928 8.96174 23.5383C7.90718 22.4837 7.31405 21.0539 7.3125 19.5625V14.8152C5.50023 14.5869 3.83358 13.7051 2.62531 12.3352C1.41705 10.9653 0.750229 9.2016 0.75 7.375V2.6875C0.75 2.19022 0.947544 1.71331 1.29917 1.36167C1.65081 1.01004 2.12772 0.8125 2.625 0.8125H4.5C4.74864 0.8125 4.9871 0.911272 5.16291 1.08709C5.33873 1.2629 5.4375 1.50136 5.4375 1.75C5.4375 1.99864 5.33873 2.2371 5.16291 2.41291C4.9871 2.58873 4.74864 2.6875 4.5 2.6875H2.625V7.375C2.62493 8.12004 2.77288 8.85767 3.06024 9.54506C3.3476 10.2325 3.76865 10.8559 4.29895 11.3792C4.82925 11.9026 5.45823 12.3153 6.14937 12.5935C6.8405 12.8718 7.58003 13.0099 8.325 13C11.3848 12.9602 13.875 10.3926 13.875 7.27773V2.6875H12C11.7514 2.6875 11.5129 2.58873 11.3371 2.41291C11.1613 2.2371 11.0625 1.99864 11.0625 1.75C11.0625 1.50136 11.1613 1.2629 11.3371 1.08709C11.5129 0.911272 11.7514 0.8125 12 0.8125H13.875C14.3723 0.8125 14.8492 1.01004 15.2008 1.36167C15.5525 1.71331 15.75 2.19022 15.75 2.6875V7.27773C15.75 11.1262 12.8754 14.343 9.1875 14.8141V19.5625C9.1875 20.5571 9.58259 21.5109 10.2858 22.2141C10.9891 22.9174 11.9429 23.3125 12.9375 23.3125H15.75C16.6016 23.3111 17.4274 23.0204 18.0922 22.4881C18.7569 21.9558 19.2211 21.2135 19.4086 20.3828C18.2764 20.1285 17.2787 19.4632 16.6087 18.5158C15.9387 17.5683 15.6439 16.406 15.7815 15.2537C15.919 14.1015 16.479 13.0412 17.3532 12.278C18.2274 11.5149 19.3536 11.1031 20.5139 11.1224C21.6742 11.1417 22.786 11.5907 23.6344 12.3825C24.4827 13.1743 25.0072 14.2527 25.1063 15.4089C25.2054 16.5651 24.8722 17.7169 24.171 18.6416C23.4698 19.5662 22.4506 20.1979 21.3105 20.4145V20.4168ZM23.25 15.8125C23.25 15.2562 23.085 14.7125 22.776 14.25C22.467 13.7874 22.0277 13.427 21.5138 13.2141C20.9999 13.0012 20.4344 12.9455 19.8888 13.054C19.3432 13.1626 18.8421 13.4304 18.4488 13.8238C18.0554 14.2171 17.7876 14.7182 17.679 15.2638C17.5705 15.8094 17.6262 16.3749 17.8391 16.8888C18.052 17.4027 18.4124 17.842 18.875 18.151C19.3375 18.4601 19.8812 18.625 20.4375 18.625C21.1834 18.625 21.8988 18.3287 22.4262 17.8012C22.9537 17.2738 23.25 16.5584 23.25 15.8125Z" fill="#7E7E7E"/>
</svg>
