<svg width="26" height="25" viewBox="0 0 26 25" fill="none" xmlns="http://www.w3.org/2000/svg">
<path id="Vector" d="M26 13.0795C26 5.85588 20.1797 0 13 0C5.8203 0 0 5.85588 0 13.0795C0 17.8639 2.55336 22.0483 6.36385 24.3286C8.58438 25.6574 10.9688 23.6594 10.9688 21.0716V18.5107C10.9688 17.5992 10.2298 16.8603 9.31836 16.8603C8.40687 16.8603 7.66797 16.1214 7.66797 15.2099V14.7299C7.66797 13.8184 8.40687 13.0795 9.31836 13.0795C10.2298 13.0795 10.9688 12.3406 10.9688 11.4291V10.1979C10.9688 6.91986 12.9096 5.10917 15.879 5.10917C16.3765 5.10917 16.8819 5.14041 17.3289 5.18105C18.1759 5.25806 18.7891 5.9863 18.7891 6.83684V6.94411C18.7891 7.84947 18.0551 8.58341 17.1498 8.58341C15.5349 8.58341 15.0312 9.59162 15.0312 10.626V11.4134C15.0312 12.3335 15.7772 13.0795 16.6974 13.0795C17.7176 13.0795 18.4982 13.9881 18.3444 14.9967L18.2713 15.4765C18.15 16.2723 17.4656 16.8603 16.6606 16.8603C15.7607 16.8603 15.0312 17.5897 15.0312 18.4896V21.0716C15.0312 23.6594 17.4156 25.6574 19.6362 24.3286C23.4466 22.0483 26 17.8639 26 13.0795Z" fill="#4267B2"/>
</svg>
