<svg width="35" height="34" viewBox="0 0 35 34" fill="none" xmlns="http://www.w3.org/2000/svg">
<g id="Group 1000005253">
<rect id="Rectangle 39910" x="1" y="0.5" width="33" height="33" rx="16.5" fill="white" stroke="#2EB3D6"/>
<path id="Vector" d="M15.8523 18.7497V18.5568L15.7227 18.4139L10.0351 12.1404C10.035 12.1404 10.035 12.1403 10.0349 12.1402C9.87602 11.9645 9.77123 11.7462 9.73345 11.5117C9.69565 11.2771 9.72658 11.0365 9.82241 10.8193C9.91823 10.6021 10.0748 10.4176 10.2728 10.2882C10.4707 10.1589 10.7017 10.09 10.9377 10.0897H24.0619C24.2979 10.09 24.5289 10.1589 24.7269 10.2882L24.9982 9.87298L24.7269 10.2882C24.9249 10.4176 25.0814 10.6021 25.1772 10.8193C25.2731 11.0365 25.304 11.2771 25.2662 11.5117C25.2284 11.7462 25.1237 11.9644 24.9649 12.1401C24.9649 12.1401 24.9649 12.1401 24.9648 12.1401C24.9647 12.1402 24.9646 12.1403 24.9646 12.1404L19.2769 18.4139L19.1474 18.5568V18.7497V22.2048C19.1474 22.2223 19.1434 22.2396 19.1359 22.2552L19.5868 22.4714L19.1359 22.2552C19.1284 22.2709 19.1176 22.2845 19.1044 22.2951C19.1044 22.2951 19.1044 22.2951 19.1043 22.2951C19.1043 22.2952 19.1043 22.2952 19.1042 22.2952L17.1869 23.8336L16.0364 24.7567L16.0359 24.7571C16.0157 24.7733 15.9909 24.782 15.9655 24.782L15.9628 24.782C15.9482 24.7821 15.9338 24.7788 15.9206 24.7723L15.917 24.7705C15.8979 24.7613 15.8815 24.7467 15.87 24.7283C15.8585 24.7099 15.8523 24.6884 15.8523 24.6664V18.7497Z" fill="#2EB3D6" stroke="#2EB3D6"/>
</g>
</svg>
