<svg width="68" height="43" viewBox="0 0 68 43" fill="none" xmlns="http://www.w3.org/2000/svg">
<g id="Book Consultation">
<path d="M0.222229 21.1806C0.222229 9.48286 9.70508 0 21.4028 0H47.9461C59.0216 0 68 8.97845 68 20.0539C68 32.3738 58.0127 42.3611 45.6928 42.3611H21.4028C9.70507 42.3611 0.222229 32.8783 0.222229 21.1806Z" fill="#2EB3D6"/>
<g id="Group 1632">
<path id="Vector" d="M43.5725 21.0329L37.01 15.473C36.8332 15.3283 36.5964 15.2482 36.3506 15.25C36.1048 15.2518 35.8697 15.3354 35.6958 15.4826C35.522 15.6299 35.4234 15.8291 35.4213 16.0374C35.4191 16.2456 35.5136 16.4463 35.6844 16.5961L40.6466 20.8001H24.1597C23.9111 20.8001 23.6726 20.8838 23.4968 21.0328C23.321 21.1817 23.2222 21.3838 23.2222 21.5944C23.2222 21.8051 23.321 22.0071 23.4968 22.156C23.6726 22.305 23.9111 22.3887 24.1597 22.3887H40.6466L35.6844 26.5928C35.5949 26.666 35.5235 26.7537 35.4743 26.8506C35.4252 26.9475 35.3993 27.0517 35.3982 27.1572C35.3972 27.2626 35.4209 27.3672 35.468 27.4648C35.5152 27.5624 35.5848 27.6511 35.6728 27.7257C35.7608 27.8003 35.8655 27.8593 35.9807 27.8992C36.0959 27.9391 36.2194 27.9592 36.3439 27.9583C36.4683 27.9574 36.5914 27.9355 36.7057 27.8938C36.8201 27.8522 36.9236 27.7917 37.01 27.7159L43.5725 22.156C43.7483 22.007 43.847 21.805 43.847 21.5944C43.847 21.3838 43.7483 21.1818 43.5725 21.0329Z" fill="white"/>
</g>
</g>
</svg>
