<svg width="26" height="26" viewBox="0 0 26 26" fill="none" xmlns="http://www.w3.org/2000/svg">
<path d="M5.46187 14.7092C5.6121 15.3738 5.66734 16.0661 5.49104 16.7243L5.32896 17.3293C5.04941 18.3729 4.11416 19.1065 3.034 19.1293C2.12261 19.1486 1.25883 18.6628 0.920982 17.8161C0.326694 16.3267 0 14.7017 0 13.0001C0 10.8446 0.524158 8.81189 1.45328 7.02203C1.45345 7.0217 1.4538 7.02148 1.45418 7.02148C1.45424 7.02148 1.4543 7.02149 1.45436 7.0215L2.58893 7.22951C3.72122 7.4371 4.67714 8.19211 5.14138 9.24552C5.49362 10.0448 5.49784 10.9426 5.36388 11.8057C5.30346 12.195 5.27206 12.5939 5.27206 13.0001C5.27212 13.5873 5.3376 14.1594 5.46187 14.7092Z" fill="#FBBB00"/>
<path d="M23.33 10.5715C24.7471 10.5715 25.9998 11.5829 25.9998 13C25.9998 13.9308 25.902 14.8386 25.7156 15.7143C25.0828 18.6941 23.4294 21.2961 21.139 23.1375C21.1387 23.1377 21.1382 23.1377 21.138 23.1374C21.1378 23.1373 21.1376 23.1372 21.1374 23.1372L19.2255 23.0396C18.1776 22.9861 17.3098 22.2072 17.1439 21.1712C16.9989 20.2665 17.4458 19.3873 18.1308 18.7788C18.1747 18.7398 18.2182 18.7002 18.2613 18.6602C19.5297 17.4809 18.3901 15.7143 16.6581 15.7143H15.8571C14.4369 15.7143 13.2856 14.5631 13.2856 13.1429C13.2856 11.7227 14.4369 10.5715 15.8571 10.5715H20.3385H23.33Z" fill="#518EF8"/>
<path d="M21.1374 23.1371C21.1378 23.1375 21.1377 23.1381 21.1373 23.1385C18.9096 24.9288 16.0799 26 12.9995 26C8.77287 26 5.01739 23.9831 2.64294 20.8591C1.93242 19.9243 2.205 18.6236 3.11359 17.8798C4.41308 16.8161 6.41709 17.3822 7.62315 18.5508C9.01397 19.8984 10.9099 20.7279 12.9995 20.7279C15.4588 20.7279 18.1667 20.7051 20.0696 22.263L21.1374 23.1371Z" fill="#28B446"/>
<path d="M18.4121 1.17667C20.0236 1.91562 20.0239 4.03618 18.6521 5.15925C17.7165 5.92517 16.4078 5.95694 15.251 5.60512C14.539 5.38856 13.7833 5.27211 13.0004 5.27211C11.1798 5.27211 9.50623 5.9018 8.18548 6.95526C6.52437 8.28022 3.94165 9.05746 2.29755 7.71146L1.45479 7.0215C1.45473 7.02145 1.45465 7.02142 1.45456 7.02142C1.4543 7.02142 1.45413 7.02114 1.45425 7.0209C3.61793 2.84976 7.97633 0 13.0004 0C14.9315 0 16.7644 0.421128 18.4121 1.17667Z" fill="#F14336"/>
</svg>
