<svg width="29" height="29" viewBox="0 0 29 29" fill="none" xmlns="http://www.w3.org/2000/svg">
<path d="M9.0665 14.5607L12.5102 14.5608C12.8124 14.5608 13.1144 14.2587 13.1144 13.9567L13.1145 10.0901C13.1146 8.21722 14.625 6.64638 16.4376 6.64644C16.7398 6.64645 17.0417 6.40477 17.0418 6.04235L17.0419 2.96083C17.0419 2.5984 16.7397 2.35671 16.4378 2.3567L15.8941 2.35669C11.8461 2.35655 8.46278 5.73993 8.46265 9.90851L8.46252 13.9564C8.46251 14.2585 8.76467 14.5607 9.06661 14.5607L9.0665 14.5607Z" fill="#2EB3D6"/>
<path d="M8.94621 0.604297C8.94622 0.302128 8.70454 0.000177439 8.34212 0.000165742L5.13988 6.23953e-05C4.95867 5.65468e-05 4.77745 0.0605266 4.65671 0.181264C4.59623 0.302214 4.53575 0.422953 4.53574 0.604165L4.53558 5.73952C3.68972 6.46454 3.2063 7.61233 3.20626 8.82077L3.20625 8.94151C4.2333 8.3979 5.56253 7.97482 7.13342 7.67289C7.31464 7.6729 7.49586 7.61243 7.61681 7.61243C7.91901 6.52494 8.34193 5.5584 9.00659 4.71237L9.00651 0.604266L8.94621 0.604297Z" fill="#2EB3D6"/>
<path d="M4.83679 26.04L4.83685 24.1669C4.83685 23.9857 4.89734 23.8045 5.07856 23.6835L6.34733 22.7168L5.62245 17.4605C5.56199 17.0981 5.80369 16.7959 6.10585 16.7959C6.40802 16.7355 6.77043 16.9772 6.77042 17.3396L7.5556 22.8979C7.61607 23.1396 7.49511 23.3208 7.31389 23.4416L6.04511 24.4692L6.04502 27.0671C7.5554 28.2754 9.18651 29.0005 10.6367 29.0006C10.9388 29.0006 11.1803 29.0006 11.422 28.9401C12.1471 28.8194 12.7513 28.5173 13.4159 28.1548L12.268 25.4964C12.2075 25.4359 12.2075 25.3152 12.2075 25.2547L12.2076 22.5963L10.2746 19.3943C10.0934 19.0921 10.2141 18.7297 10.4558 18.5484C10.758 18.3672 11.1204 18.488 11.3017 18.7297L13.2954 21.9922C13.3558 22.113 13.4161 22.1735 13.4161 22.2944L13.416 25.013L14.3827 27.3089C16.9202 24.9527 18.31 20.4819 17.4644 16.1923C17.0415 13.836 15.9541 11.9027 14.3832 10.6339L14.3831 13.9569C14.3831 14.9237 13.5372 15.7695 12.5705 15.7695L9.06625 15.7691C8.09948 15.7691 7.25367 14.9232 7.2537 13.9565L7.25383 9.90861C7.25385 9.54617 7.25386 9.18356 7.31434 8.88158L7.25408 8.88158C1.69572 9.9689 -0.721038 12.9896 0.185054 17.823C0.728815 20.7834 2.60157 23.8647 4.83697 26.0398L4.83679 26.04Z" fill="#2EB3D6"/>
<path d="M28.3995 18.0653L27.1912 18.0653L25.8622 12.9299C25.8017 12.6277 25.56 12.4465 25.2581 12.4465C24.9559 12.4465 24.7144 12.6882 24.7144 12.9299L23.506 19.7569L22.781 17.2194C22.7205 16.9777 22.5393 16.7965 22.2976 16.7965C22.056 16.736 21.8143 16.857 21.6935 17.0987L20.4247 19.1527L19.2769 15.3465C19.2164 15.1048 18.9747 14.9235 18.7332 14.9235C18.6125 14.9235 18.4915 14.9235 18.4311 14.984C18.5518 15.3464 18.6123 15.6486 18.6727 16.011C18.7934 16.7964 18.9144 17.5819 18.9143 18.3673L19.6996 20.8445C19.7601 21.0862 19.9413 21.2674 20.183 21.2674C20.4247 21.3279 20.6664 21.207 20.7871 20.9653L21.9954 18.9113L23.0828 22.6572C23.1432 22.8989 23.3849 23.0801 23.6869 23.0801L23.7474 23.0801C24.0495 23.0801 24.291 22.8384 24.291 22.5967L25.4392 15.9509L26.2245 18.8511C26.2849 19.0928 26.5266 19.3345 26.8286 19.3345L28.3994 19.3343C28.7619 19.3343 29.0036 19.0926 29.0036 18.7302C29.0036 18.3071 28.7619 18.0654 28.3995 18.0654L28.3995 18.0653Z" fill="#2EB3D6"/>
</svg>
