<svg width="44" height="44" viewBox="0 0 44 44" fill="none" xmlns="http://www.w3.org/2000/svg">
<circle cx="22" cy="22" r="22" fill="#F2F8F7"/>
<g clip-path="url(#clip0_60_5116)">
<path d="M22.0002 32.63C21.3302 32.63 20.6502 32.48 20.1202 32.17L14.6202 29C12.3802 27.49 12.2402 27.26 12.2402 24.89V19.11C12.2402 16.74 12.3702 16.51 14.5702 15.02L20.1102 11.82C21.1602 11.21 22.8102 11.21 23.8602 11.82L29.3802 15C31.6202 16.51 31.7602 16.74 31.7602 19.11V24.88C31.7602 27.25 31.6302 27.48 29.4302 28.97L23.8902 32.17C23.3502 32.48 22.6702 32.63 22.0002 32.63ZM22.0002 12.87C21.5802 12.87 21.1702 12.95 20.8802 13.12L15.3802 16.3C13.7502 17.4 13.7502 17.4 13.7502 19.11V24.88C13.7502 26.59 13.7502 26.59 15.4202 27.72L20.8802 30.87C21.4702 31.21 22.5402 31.21 23.1302 30.87L28.6302 27.69C30.2502 26.59 30.2502 26.59 30.2502 24.88V19.11C30.2502 17.4 30.2502 17.4 28.5802 16.27L23.1202 13.12C22.8302 12.95 22.4202 12.87 22.0002 12.87Z" fill="black"/>
<path d="M22 25.75C19.93 25.75 18.25 24.07 18.25 22C18.25 19.93 19.93 18.25 22 18.25C24.07 18.25 25.75 19.93 25.75 22C25.75 24.07 24.07 25.75 22 25.75ZM22 19.75C20.76 19.75 19.75 20.76 19.75 22C19.75 23.24 20.76 24.25 22 24.25C23.24 24.25 24.25 23.24 24.25 22C24.25 20.76 23.24 19.75 22 19.75Z" fill="black"/>
</g>
<defs>
<clipPath id="clip0_60_5116">
<rect width="24" height="24" fill="white" transform="translate(10 10)"/>
</clipPath>
</defs>
</svg>
