<svg width="44" height="44" viewBox="0 0 44 44" fill="none" xmlns="http://www.w3.org/2000/svg">
<g id="Group 137">
<circle id="Ellipse 300" cx="22" cy="22" r="22" fill="#F2F8F7"/>
<path id="Vector" d="M20.7025 14.9042C21.4849 14.3653 22.5151 14.3653 23.2975 14.9042L28.4975 18.4863C29.1241 18.9179 29.5 19.6341 29.5 20.4011V27.181C29.5 28.4649 28.4671 29.5 27.2 29.5H16.8C15.5329 29.5 14.5 28.4649 14.5 27.181V20.4011C14.5 19.6342 14.8759 18.9179 15.5025 18.4863L20.7025 14.9042ZM20 25.8755C19.4997 25.8755 19.1 26.283 19.1 26.7783C19.1 27.2736 19.4997 27.681 20 27.681H24C24.5002 27.681 24.9 27.2736 24.9 26.7783C24.9 26.2829 24.5002 25.8755 24 25.8755H20Z" stroke="black"/>
</g>
</svg>
