<svg width="20" height="20" viewBox="0 0 20 20" fill="none" xmlns="http://www.w3.org/2000/svg">
<g id="image">
<path id="Vector" d="M15.8333 2.5H4.16667C3.24619 2.5 2.5 3.24619 2.5 4.16667V15.8333C2.5 16.7538 3.24619 17.5 4.16667 17.5H15.8333C16.7538 17.5 17.5 16.7538 17.5 15.8333V4.16667C17.5 3.24619 16.7538 2.5 15.8333 2.5Z" stroke="#94A3B8" stroke-width="1.66667" stroke-linecap="round" stroke-linejoin="round"/>
<path id="Vector_2" d="M7.08301 8.33301C7.77336 8.33301 8.33301 7.77336 8.33301 7.08301C8.33301 6.39265 7.77336 5.83301 7.08301 5.83301C6.39265 5.83301 5.83301 6.39265 5.83301 7.08301C5.83301 7.77336 6.39265 8.33301 7.08301 8.33301Z" stroke="#94A3B8" stroke-width="1.66667" stroke-linecap="round" stroke-linejoin="round"/>
<path id="Vector_3" d="M17.5003 12.4997L13.3337 8.33301L4.16699 17.4997" stroke="#94A3B8" stroke-width="1.66667" stroke-linecap="round" stroke-linejoin="round"/>
</g>
</svg>
