<svg width="20" height="20" viewBox="0 0 20 20" fill="none" xmlns="http://www.w3.org/2000/svg">
<g id="link" clip-path="url(#clip0_60_3760)">
<path id="Vector" d="M8.33301 10.833C8.69088 11.3114 9.14747 11.7073 9.6718 11.9938C10.1961 12.2802 10.7759 12.4506 11.3719 12.4933C11.9678 12.5359 12.566 12.45 13.1258 12.2411C13.6856 12.0323 14.1939 11.7055 14.6163 11.283L17.1163 8.78298C17.8753 7.99714 18.2953 6.94463 18.2858 5.85214C18.2763 4.75965 17.8381 3.7146 17.0656 2.94207C16.2931 2.16953 15.248 1.73133 14.1555 1.72184C13.063 1.71234 12.0105 2.13232 11.2247 2.89131L9.79134 4.31631" stroke="#94A3B8" stroke-width="1.66667" stroke-linecap="round" stroke-linejoin="round"/>
<path id="Vector_2" d="M11.6668 9.16683C11.309 8.68839 10.8524 8.29252 10.328 8.00605C9.80371 7.71959 9.22391 7.54924 8.62796 7.50656C8.03201 7.46387 7.43384 7.54986 6.87405 7.75868C6.31425 7.9675 5.8059 8.29428 5.3835 8.71683L2.8835 11.2168C2.12451 12.0027 1.70453 13.0552 1.71402 14.1477C1.72352 15.2402 2.16172 16.2852 2.93426 17.0577C3.70679 17.8303 4.75184 18.2685 5.84433 18.278C6.93681 18.2875 7.98932 17.8675 8.77517 17.1085L10.2002 15.6835" stroke="#94A3B8" stroke-width="1.66667" stroke-linecap="round" stroke-linejoin="round"/>
</g>
<defs>
<clipPath id="clip0_60_3760">
<rect width="20" height="20" fill="white"/>
</clipPath>
</defs>
</svg>
