<svg width="20" height="18" viewBox="0 0 20 18" fill="none" xmlns="http://www.w3.org/2000/svg">
<path id="Vector" fill-rule="evenodd" clip-rule="evenodd" d="M2.63604 2.63592C5.58166 -0.309712 10.0588 -0.785632 13.5004 1.20358C13.9786 1.47996 14.1421 2.09163 13.8658 2.56979C13.5894 3.04795 12.9777 3.21152 12.4996 2.93515C9.8222 1.38767 6.33953 1.76085 4.05025 4.05013C1.31658 6.7838 1.31658 11.216 4.05025 13.9497C6.33953 16.2389 9.8222 16.6121 12.4996 15.0646C12.9777 14.7883 13.5894 14.9518 13.8658 15.43C14.1421 15.9082 13.9786 16.5198 13.5004 16.7962C10.0588 18.7854 5.58166 18.3095 2.63604 15.3639C-0.87868 11.8492 -0.87868 6.15063 2.63604 2.63592ZM15.2929 5.29277C15.6834 4.90224 16.3166 4.90224 16.7071 5.29277L18.5983 7.18396C18.7768 7.36246 18.9506 7.53616 19.0858 7.69536C19.2342 7.87026 19.3938 8.09216 19.4879 8.38186C19.6184 8.78356 19.6184 9.21626 19.4879 9.61786C19.3938 9.90766 19.2342 10.1296 19.0858 10.3044C18.9506 10.4636 18.7768 10.6374 18.5983 10.8158L16.7071 12.707C16.3166 13.0975 15.6834 13.0975 15.2929 12.707C14.9024 12.3165 14.9024 11.6833 15.2929 11.2928L16.5858 9.99986H9C8.4477 9.99986 8 9.55216 8 8.99986C8 8.44756 8.4477 7.99986 9 7.99986H16.5858L15.2929 6.70698C14.9024 6.31646 14.9024 5.68329 15.2929 5.29277Z" fill="black"/>
</svg>
