<svg width="44" height="44" viewBox="0 0 44 44" fill="none" xmlns="http://www.w3.org/2000/svg">
<g id="Group 137">
<circle id="Ellipse 300" cx="22" cy="22" r="22" fill="#F2F8F7"/>
<path id="Vector" d="M26.3971 27.5469V29.0312C26.3971 30.6683 25.0653 32 23.4282 32H15.9689C14.3318 32 13 30.6683 13 29.0312V15.9688C13 14.3317 14.3318 13 15.9689 13H23.4282C25.0653 13 26.3971 14.3317 26.3971 15.9688V17.4531C26.3971 17.8631 26.0648 18.1953 25.6549 18.1953C25.2449 18.1953 24.9126 17.8631 24.9126 17.4531V15.9688C24.9126 15.1503 24.2467 14.4844 23.4282 14.4844H15.9689C15.1504 14.4844 14.4844 15.1503 14.4844 15.9688V29.0312C14.4844 29.8497 15.1504 30.5156 15.9689 30.5156H23.4282C24.2467 30.5156 24.9126 29.8497 24.9126 29.0312V27.5469C24.9126 27.1369 25.2449 26.8047 25.6549 26.8047C26.0648 26.8047 26.3971 27.1369 26.3971 27.5469ZM31.4574 21.2251L29.7953 19.5631C29.5054 19.2732 29.0354 19.2732 28.7456 19.5631C28.4557 19.8529 28.4557 20.3229 28.7456 20.6126L29.9278 21.7949H21.016C20.606 21.7949 20.2738 22.1272 20.2738 22.5371C20.2738 22.9471 20.606 23.2793 21.016 23.2793H29.9278L28.7456 24.4616C28.4557 24.7514 28.4557 25.2213 28.7456 25.5111C28.8906 25.656 29.0805 25.7285 29.2704 25.7285C29.4605 25.7285 29.6504 25.656 29.7953 25.5111L31.4574 23.8491C32.1809 23.1256 32.1809 21.9486 31.4574 21.2251Z" fill="black"/>
</g>
</svg>
