<svg width="37" height="38" viewBox="0 0 37 38" fill="none" xmlns="http://www.w3.org/2000/svg">
<g id="Group">
<path id="Vector" d="M36.9998 18.9997C36.9998 29.2173 28.7171 37.5 18.4999 37.5C8.28268 37.5 0 29.2173 0 18.9997C0 8.78286 8.28268 0.5 18.4999 0.5C28.7171 0.5 36.9998 8.78286 36.9998 18.9997Z" fill="#8DBFEB"/>
<path id="Vector_2" d="M23.1141 21.7472C21.6515 21.5265 20.174 21.417 18.6965 21.417C18.6933 21.417 18.69 21.417 18.687 21.417C18.6833 21.417 18.6803 21.417 18.6768 21.417C17.1997 21.417 15.7223 21.5265 14.2596 21.7472C9.62001 22.4533 9.00233 23.4917 8.63251 27.0624C8.45979 28.7291 8.40234 31.2364 8.40234 31.4322C8.40234 32.8002 8.51562 33.8661 8.71778 34.7011C11.556 36.4727 14.9069 37.5003 18.4992 37.5003C22.2789 37.5003 25.7915 36.3643 28.7204 34.419C28.8825 33.6291 28.971 32.6495 28.971 31.4322C28.971 31.2364 28.9137 28.7291 28.741 27.0624C28.3716 23.4917 27.7535 22.4533 23.1141 21.7472Z" fill="#D07E55"/>
<path id="Vector_3" d="M18.6769 30.1673C21.0312 30.1673 22.9397 27.7789 22.9397 24.8327C22.9397 21.8864 21.0312 19.498 18.6769 19.498C16.3226 19.498 14.4141 21.8864 14.4141 24.8327C14.4141 27.7789 16.3226 30.1673 18.6769 30.1673Z" fill="white"/>
<path id="Vector_4" d="M22.3304 22.0957C22.4499 22.7775 22.4598 23.5088 22.3371 24.2582C21.8602 27.1651 19.5901 29.2131 17.2668 28.8315C16.3232 28.6765 15.5198 28.141 14.9258 27.3689C15.6468 29.0353 17.0563 30.1677 18.6769 30.1677C21.0309 30.1677 22.9396 27.7794 22.9396 24.8331C22.9396 23.8312 22.7147 22.8968 22.3304 22.0957Z" fill="#E5E5E5"/>
<path id="Vector_5" d="M20.3361 24.0138C20.3361 24.8232 19.5511 25.4808 18.582 25.4808C17.6133 25.4808 16.8281 24.8232 16.8281 24.0138V19.4128C16.8281 18.6027 17.6133 17.9464 18.582 17.9464C19.5511 17.9464 20.3361 18.6027 20.3361 19.4128V24.0138Z" fill="#F2CCB1"/>
<path id="Vector_6" d="M18.5243 2.2168C14.538 2.2168 11.3066 4.74716 11.3066 13.9202C11.3066 14.8233 11.3545 17.5524 11.4445 18.406H25.6038C25.6939 17.5524 25.742 14.8233 25.742 13.9202C25.742 4.17211 22.5106 2.2168 18.5243 2.2168Z" fill="#451A00"/>
<path id="Vector_7" d="M23.9459 10.844C23.9459 13.381 23.5856 15.9804 22.5074 17.8562C21.5609 19.5032 19.9888 21.0664 18.6116 21.0664C17.2626 21.0664 15.7139 19.5465 14.7747 17.9569C13.6623 16.0736 13.2773 13.4264 13.2773 10.844C13.2773 6.07989 15.6655 3.33887 18.6116 3.33887C21.5577 3.33887 23.9459 6.07989 23.9459 10.844Z" fill="#F2CCB1"/>
<g id="Group_2">
<path id="Vector_8" d="M25.7392 13.9206C25.7392 11.6712 25.5653 9.84142 25.2518 8.35059H23.6961C23.8565 9.10522 23.9438 9.93735 23.9438 10.8437C23.9438 13.3808 23.5834 15.9802 22.5054 17.856C22.3986 18.0415 22.2833 18.2254 22.1621 18.4065H25.6012C25.691 17.5528 25.7392 14.8237 25.7392 13.9206Z" fill="#3C0200"/>
</g>
<path id="Vector_9" d="M14.2812 9.52085C14.545 9.40722 14.8241 9.3541 15.1038 9.32917C15.3844 9.30388 15.6673 9.31743 15.9477 9.3588C16.2292 9.40776 16.5011 9.48038 16.7663 9.6092C17.0246 9.73476 17.2794 9.90314 17.4499 10.1537C17.1988 10.0182 16.9424 9.93674 16.6852 9.86357C16.4308 9.79636 16.1636 9.73927 15.9018 9.70007C15.3732 9.61245 14.84 9.57559 14.2812 9.52085Z" fill="#451A00"/>
<path id="Vector_10" d="M23.1005 9.52065C22.8369 9.40702 22.5576 9.3539 22.2779 9.32897C21.9973 9.30368 21.7144 9.31723 21.434 9.3586C21.1527 9.40756 20.8808 9.48019 20.6158 9.609C20.3573 9.73456 20.1027 9.90294 19.9316 10.1535C20.1831 10.018 20.4391 9.93654 20.6966 9.86337C20.9511 9.79616 21.2183 9.73908 21.4801 9.69987C22.0085 9.61225 22.5417 9.57539 23.1005 9.52065Z" fill="#451A00"/>
<path id="Vector_11" d="M19.3647 15.3571C19.3647 15.5145 18.9926 15.8832 18.5331 15.8832C18.0735 15.8832 17.7012 15.5145 17.7012 15.3571C17.7012 15.1994 18.0735 15.3125 18.5331 15.3125C18.9926 15.3125 19.3647 15.1994 19.3647 15.3571Z" fill="#C69077"/>
<path id="Vector_12" d="M15.4525 15.1156C15.0805 15.4094 14.5083 15.2403 14.1746 14.7389C13.841 14.2374 13.872 13.593 14.244 13.2994C14.6162 13.006 15.1882 13.1748 15.522 13.6761C15.8557 14.1776 15.8246 14.8222 15.4525 15.1156Z" fill="#E6A3A6"/>
<path id="Vector_13" d="M21.9667 15.1156C22.3387 15.4094 22.9109 15.2403 23.2446 14.7389C23.5782 14.2374 23.5474 13.593 23.1752 13.2994C22.803 13.006 22.231 13.1748 21.8974 13.6761C21.5637 14.1776 21.5946 14.8222 21.9667 15.1156Z" fill="#E6A3A6"/>
<path id="Vector_14" d="M20.1312 17.0613C19.8052 17.0613 19.5485 16.8318 19.3017 16.8241C19.0548 16.8165 18.8262 16.7679 18.5973 16.7686C18.3686 16.7692 18.1397 16.8174 17.8927 16.8252C17.6442 16.8333 17.3833 17.025 17.0566 17.0613C17.0601 17.0672 17.063 17.0736 17.0662 17.0795C17.2153 17.3648 17.4163 17.6786 17.6937 17.817C17.975 17.9536 18.2864 18.0228 18.5973 18.023C18.9088 18.0239 19.2203 17.9547 19.5016 17.8179C19.7854 17.6772 19.9877 17.3523 20.1378 17.0613C20.1355 17.0611 20.1333 17.0613 20.1312 17.0613Z" fill="#BD7164"/>
<path id="Vector_15" d="M20.8227 3.92578C22.0455 5.19241 22.8308 7.25287 22.8308 9.98143C22.8308 12.5185 22.4706 15.118 21.3925 16.9937C20.446 18.6402 18.8739 20.2039 17.4967 20.2039C17.0792 20.2039 16.6425 20.0579 16.2109 19.8093C16.9712 20.5511 17.8219 21.0666 18.606 21.0666C19.9832 21.0666 21.555 19.5033 22.5014 17.8563C23.5795 15.9805 23.9401 13.3811 23.9401 10.8441C23.9401 7.36073 22.6606 4.96532 20.8227 3.92578Z" fill="#E8D3D2"/>
<path id="Vector_16" opacity="0.68" d="M18.7388 14.1285C18.7388 14.9525 18.6631 14.9424 18.5693 14.9424C18.4761 14.9424 18.4004 14.9525 18.4004 14.1285C18.4004 13.3042 18.4761 11.9561 18.5693 11.9561C18.6631 11.9561 18.7388 13.3042 18.7388 14.1285Z" fill="#F2CCB1"/>
<path id="Vector_17" opacity="0.68" d="M18.4435 19.1329C18.7607 19.1329 19.0178 19.0732 19.0178 18.9995C19.0178 18.9259 18.7607 18.8662 18.4435 18.8662C18.1263 18.8662 17.8691 18.9259 17.8691 18.9995C17.8691 19.0732 18.1263 19.1329 18.4435 19.1329Z" fill="#F2CCB1"/>
<g id="Group_3">
<path id="Vector_18" d="M24.5676 6.41014C24.5676 8.03954 24.6209 8.3239 24.6209 8.3239C24.6209 8.3239 19.4254 8.31595 18.6018 8.31595C16.2447 8.31595 12.6094 8.28615 12.6094 8.28615C12.6094 8.28615 12.6359 7.768 12.6359 6.41014C12.6359 4.92057 15.307 2.47656 18.6018 2.47656C21.8965 2.47656 24.5676 4.92057 24.5676 6.41014Z" fill="#451A00"/>
<path id="Vector_19" d="M14.9515 11.3484C14.9833 10.8866 15.3649 10.519 15.8346 10.519C16.3047 10.519 16.6862 10.8866 16.718 11.3484H17.0172C16.9851 10.7211 16.4696 10.2198 15.8346 10.2198C15.1998 10.2198 14.6843 10.7211 14.6523 11.3484H14.9515Z" fill="#451A00"/>
<path id="Vector_20" d="M20.6001 11.3483C20.6318 10.8866 21.0133 10.5189 21.4832 10.5189C21.9533 10.5189 22.3349 10.8866 22.3665 11.3483H22.6658C22.6339 10.7211 22.1181 10.2197 21.4832 10.2197C20.8484 10.2197 20.3329 10.7211 20.3008 11.3483H20.6001Z" fill="#451A00"/>
</g>
<path id="Vector_21" d="M19.8774 17.2182C19.6067 17.2182 19.3914 17.0961 19.1854 17.0919C18.9793 17.088 18.7887 17.0623 18.5977 17.0625C18.407 17.063 18.2162 17.0885 18.01 17.0929C17.8026 17.0968 17.5849 17.1989 17.3125 17.2182C17.3152 17.2213 17.3174 17.2246 17.3201 17.2278C17.4449 17.3794 17.6122 17.5463 17.8438 17.6195C18.0785 17.6923 18.3381 17.7291 18.5977 17.7293C18.8574 17.7299 19.1173 17.693 19.3522 17.6202C19.5889 17.5452 19.758 17.3729 19.8832 17.2182C19.8812 17.2179 19.8792 17.2182 19.8774 17.2182Z" fill="white"/>
<path id="Vector_22" d="M25.5312 22.2549C25.782 22.9848 25.9925 23.8534 26.2102 24.8897C26.6691 27.0746 27.1419 30.3851 27.1742 30.6449C27.4147 32.5827 27.4591 34.0789 27.3532 35.2456C27.8212 34.9902 28.2752 34.7134 28.7174 34.42C28.8804 33.6291 28.9705 32.6517 28.9705 31.4315C28.9705 31.2356 28.9133 28.7284 28.7406 27.0616C28.4482 24.2382 27.9987 22.9985 25.5312 22.2549Z" fill="#BC734E"/>
<path id="Vector_23" d="M22.5548 4.52262C22.3165 4.97555 20.6089 4.30836 18.5801 4.33943C16.5512 4.30836 14.8441 4.97555 14.6056 4.52262C14.3397 4.10746 16.0258 2.44771 18.5801 2.45421C21.1343 2.44771 22.8208 4.10818 22.5548 4.52262Z" fill="#512800"/>
<g id="Group_4">
<path id="Vector_24" d="M15.8077 3.76953C15.5141 4.0445 15.2699 4.3491 15.0494 4.66707C14.8323 4.98648 14.6433 5.32269 14.4858 5.6739C14.1609 6.37487 13.9687 7.12752 13.7805 7.91033C13.6947 7.10891 13.8352 6.27876 14.1718 5.53082C14.3459 5.15991 14.5629 4.806 14.8386 4.50104C15.1111 4.19752 15.4323 3.92671 15.8077 3.76953Z" fill="#6D3F28"/>
<path id="Vector_25" d="M17.2309 3.76953C17.1046 4.01487 17.0018 4.31116 16.9044 4.62533C16.8105 4.94149 16.723 5.28204 16.6486 5.63831C16.4891 6.35103 16.3801 7.12264 16.2172 7.91033C16.1063 7.1136 16.1634 6.30297 16.3346 5.56641C16.4259 5.20056 16.5413 4.85116 16.6938 4.54241C16.843 4.2351 17.0229 3.95616 17.2309 3.76953Z" fill="#6D3F28"/>
<path id="Vector_26" d="M18.6536 3.76953C18.6948 3.9856 18.7331 4.27322 18.7592 4.58396C18.7884 4.89633 18.8025 5.24139 18.811 5.60254C18.8168 6.327 18.7908 7.1183 18.6536 7.91033C18.5169 7.1183 18.4911 6.327 18.4968 5.60254C18.5053 5.24139 18.5192 4.89633 18.5483 4.58396C18.5745 4.27322 18.613 3.9856 18.6536 3.76953Z" fill="#6D3F28"/>
<path id="Vector_27" d="M20.0781 3.76953C20.2864 3.95616 20.4662 4.2351 20.6154 4.54241C20.7681 4.85116 20.8835 5.20056 20.9746 5.56641C21.146 6.30297 21.2031 7.1136 21.0918 7.91033C20.9292 7.12264 20.8199 6.35103 20.6608 5.63831C20.5862 5.28204 20.4985 4.94149 20.4046 4.62533C20.3074 4.31116 20.2046 4.01487 20.0781 3.76953Z" fill="#6D3F28"/>
<path id="Vector_28" d="M21.502 3.76953C21.877 3.92671 22.1982 4.19752 22.4709 4.50104C22.7465 4.806 22.9635 5.15991 23.1377 5.53082C23.4744 6.27876 23.6146 7.10891 23.529 7.91033C23.3407 7.12752 23.1485 6.37487 22.8237 5.6739C22.666 5.32269 22.4772 4.98648 22.26 4.66707C22.0396 4.3491 21.7953 4.0445 21.502 3.76953Z" fill="#6D3F28"/>
</g>
<path id="Vector_29" d="M10.4219 24.6718C11.1899 25.2015 11.6162 27.5075 11.396 30.2662C11.2038 32.6791 11.9674 34.9537 11.2428 35.7743C11.415 35.951 11.5987 36.0492 11.7893 36.0492C12.7662 36.0492 12.1631 33.3277 12.1631 30.2463C12.1631 27.1939 11.3852 24.7184 10.4219 24.6718Z" fill="#BC734E"/>
</g>
</svg>
