<svg width="44" height="44" viewBox="0 0 44 44" fill="none" xmlns="http://www.w3.org/2000/svg">
<g id="Group 137">
<circle id="Ellipse 300" cx="22" cy="22" r="22" fill="#F2F8F7"/>
<g id="Group 1000005382">
<path id="Vector" d="M21.8058 22.1524C23.0632 22.1524 24.1518 21.7014 25.0416 20.8117C25.9311 19.9221 26.3822 18.8336 26.3822 17.576C26.3822 16.319 25.9312 15.2303 25.0415 14.3404C24.1517 13.451 23.0631 13 21.8058 13C20.5483 13 19.4598 13.451 18.5702 14.3406C17.6806 15.2302 17.2295 16.3188 17.2295 17.576C17.2295 18.8336 17.6806 19.9222 18.5702 20.8118C19.4601 21.7013 20.5488 22.1524 21.8058 22.1524ZM19.3576 15.1278C20.0402 14.4452 20.841 14.1134 21.8058 14.1134C22.7705 14.1134 23.5714 14.4452 24.2542 15.1278C24.9368 15.8106 25.2687 16.6115 25.2687 17.576C25.2687 18.5409 24.9368 19.3416 24.2542 20.0244C23.5714 20.7072 22.7705 21.039 21.8058 21.039C20.8413 21.039 20.0405 20.707 19.3576 20.0244C18.6749 19.3418 18.3429 18.5409 18.3429 17.576C18.3429 16.6115 18.6749 15.8106 19.3576 15.1278Z" fill="black"/>
<path id="Vector_2" d="M29.8134 27.6101C29.7877 27.2399 29.7358 26.836 29.6594 26.4095C29.5823 25.9799 29.483 25.5737 29.3642 25.2025C29.2412 24.8188 29.0744 24.4398 28.8678 24.0767C28.6537 23.6998 28.4021 23.3716 28.1197 23.1016C27.8244 22.8191 27.4629 22.5919 27.0448 22.4262C26.6282 22.2614 26.1665 22.1779 25.6726 22.1779C25.4787 22.1779 25.2911 22.2575 24.9289 22.4933C24.7059 22.6387 24.4451 22.8069 24.1541 22.9929C23.9052 23.1515 23.568 23.3 23.1515 23.4346C22.7452 23.566 22.3326 23.6327 21.9253 23.6327C21.5183 23.6327 21.1057 23.566 20.6991 23.4346C20.2831 23.3002 19.9458 23.1516 19.6973 22.993C19.409 22.8088 19.1481 22.6406 18.9218 22.4932C18.5598 22.2573 18.3722 22.1778 18.1783 22.1778C17.6843 22.1778 17.2227 22.2614 16.8063 22.4264C16.3885 22.5918 16.0268 22.8189 15.7312 23.1017C15.4489 23.3719 15.1972 23.7 14.9833 24.0767C14.777 24.4398 14.61 24.8186 14.4871 25.2026C14.3683 25.5739 14.269 25.9799 14.1919 26.4095C14.1154 26.8354 14.0636 27.2394 14.038 27.6105C14.0128 27.9734 14 28.351 14 28.7325C14 29.7243 14.3153 30.5272 14.937 31.1194C15.5511 31.7037 16.3634 32 17.3516 32H26.5002C27.4881 32 28.3004 31.7037 28.9146 31.1194C29.5365 30.5277 29.8518 29.7244 29.8518 28.7324C29.8516 28.3495 29.8387 27.9719 29.8134 27.6101ZM28.1469 30.3127C27.7412 30.6989 27.2025 30.8866 26.5001 30.8866H17.3516C16.649 30.8866 16.1103 30.6989 15.7047 30.3128C15.3068 29.9341 15.1134 29.417 15.1134 28.7325C15.1134 28.3765 15.1252 28.025 15.1487 27.6875C15.1716 27.3564 15.2184 26.9927 15.2878 26.6062C15.3564 26.2246 15.4436 25.8664 15.5474 25.5421C15.647 25.2312 15.7828 24.9233 15.9513 24.6267C16.112 24.344 16.297 24.1015 16.5011 23.9061C16.692 23.7233 16.9327 23.5737 17.2162 23.4615C17.4784 23.3577 17.7731 23.3009 18.093 23.2924C18.132 23.3131 18.2015 23.3527 18.314 23.426C18.5429 23.5752 18.8067 23.7453 19.0983 23.9316C19.4271 24.1412 19.8507 24.3305 20.3567 24.4939C20.8741 24.6612 21.4017 24.7461 21.9255 24.7461C22.4492 24.7461 22.977 24.6612 23.4941 24.4941C24.0005 24.3304 24.424 24.1412 24.7532 23.9313C25.0516 23.7406 25.3081 23.5753 25.537 23.426C25.6494 23.3528 25.7189 23.3131 25.7579 23.2924C26.0779 23.3009 26.3726 23.3577 26.635 23.4615C26.9184 23.5737 27.159 23.7235 27.35 23.9061C27.5541 24.1014 27.739 24.3439 27.8998 24.6268C28.0684 24.9233 28.2043 25.2313 28.3038 25.542C28.4077 25.8667 28.4951 26.2247 28.5635 26.6061C28.6328 26.9933 28.6798 27.3571 28.7027 27.6876V27.6879C28.7263 28.0241 28.7382 28.3755 28.7384 28.7325C28.7382 29.4171 28.5448 29.9341 28.1469 30.3127Z" fill="black"/>
</g>
</g>
</svg>
