<svg width="93" height="92" viewBox="0 0 93 92" fill="none" xmlns="http://www.w3.org/2000/svg">
<g id="Group 601">
<path id="Vector" d="M63.75 66.125H56.5625C55.6094 66.125 54.6953 66.5036 54.0213 67.1776C53.3474 67.8515 52.9687 68.7656 52.9687 69.7187C52.9687 70.6719 53.3474 71.5859 54.0213 72.2599C54.6953 72.9339 55.6094 73.3125 56.5625 73.3125H63.75C64.7031 73.3125 65.6172 72.9339 66.2912 72.2599C66.9651 71.5859 67.3437 70.6719 67.3437 69.7187C67.3437 68.7656 66.9651 67.8515 66.2912 67.1776C65.6172 66.5036 64.7031 66.125 63.75 66.125ZM50.0938 39.5312C50.0949 40.484 50.4739 41.3975 51.1476 42.0712C51.8213 42.7449 52.7347 43.1239 53.6875 43.125H66.625C67.5781 43.125 68.4922 42.7464 69.1662 42.0724C69.8401 41.3985 70.2187 40.4844 70.2187 39.5312C70.2187 38.5781 69.8401 37.664 69.1662 36.9901C68.4922 36.3161 67.5781 35.9375 66.625 35.9375H53.6875C52.7347 35.9386 51.8213 36.3176 51.1476 36.9913C50.4739 37.665 50.0949 38.5785 50.0938 39.5312ZM66.625 56.0625H53.6875C52.7344 56.0625 51.8203 56.4411 51.1463 57.1151C50.4724 57.789 50.0938 58.7031 50.0938 59.6562C50.0938 60.6094 50.4724 61.5234 51.1463 62.1974C51.8203 62.8714 52.7344 63.25 53.6875 63.25H66.625C67.5781 63.25 68.4922 62.8714 69.1662 62.1974C69.8401 61.5234 70.2187 60.6094 70.2187 59.6562C70.2187 58.7031 69.8401 57.789 69.1662 57.1151C68.4922 56.4411 67.5781 56.0625 66.625 56.0625Z" fill="#2EB3D6"/>
<path id="Vector_2" d="M46.5 92C55.5979 92 64.4915 89.3021 72.0562 84.2476C79.6208 79.193 85.5168 72.0088 88.9984 63.6034C92.48 55.198 93.391 45.949 91.6161 37.0258C89.8412 28.1027 85.4601 19.9063 79.0269 13.4731C72.5937 7.03989 64.3972 2.65882 55.4741 0.883897C46.551 -0.891022 37.3019 0.0199309 28.8965 3.50156C20.4911 6.98319 13.3069 12.8791 8.25239 20.4438C3.19785 28.0084 0.5 36.9021 0.5 46C0.513726 58.1957 5.36455 69.888 13.9882 78.5117C22.6119 87.1354 34.3042 91.9863 46.5 92ZM30.3497 17.4441L32.125 13.6563L33.9003 17.4441L37.875 18.0478L35 20.9947L35.6756 25.1563L32.125 23.1941L28.5744 25.1563L29.25 20.9947L26.375 18.0478L30.3497 17.4441ZM19.9062 38.8772C19.8986 37.7251 20.3484 36.6171 21.157 35.7965C21.9655 34.9758 23.0667 34.5095 24.2187 34.5H32.7647C33.4013 33.9019 34.0734 33.3427 34.7772 32.8253C35.6972 32.1281 36.6028 31.4884 37.4797 30.8775C40.3475 28.8578 42.8344 27.1113 44.6312 23.9847C46.0544 21.5194 45.8172 18.63 45.5656 15.5753C45.5225 15.0435 45.4794 14.5188 45.4434 13.9941C45.3738 13.4342 45.4422 12.8657 45.6427 12.3383C45.8431 11.8109 46.1695 11.3405 46.5934 10.9681C47.7722 9.98345 49.6625 9.79658 52.2212 10.4219C53.4936 10.7358 54.6686 11.3594 55.6417 12.2372C56.6148 13.115 57.3558 14.2197 57.7987 15.4531C59.6387 19.9597 58.6684 26.0116 56.6631 29.3394C56.3971 30.0581 55.9156 31.9413 56.5265 32.9619C56.5504 32.9938 56.572 33.0275 56.5912 33.0625H66.625C68.3398 33.0651 69.9837 33.7474 71.1962 34.96C72.4088 36.1726 73.0911 37.8164 73.0937 39.5313C73.0938 40.9804 72.6022 42.3867 71.6993 43.5203C72.9495 43.9701 74.0305 44.7948 74.7946 45.8818C75.5587 46.9688 75.9687 48.2651 75.9687 49.5937C75.9687 50.9224 75.5587 52.2187 74.7946 53.3057C74.0305 54.3927 72.9495 55.2174 71.6993 55.6672C72.3351 56.4686 72.7708 57.41 72.9702 58.4133C73.1696 59.4167 73.1271 60.4531 72.846 61.4368C72.565 62.4204 72.0536 63.3229 71.3542 64.0695C70.6548 64.816 69.7876 65.3851 68.8243 65.7297C69.7272 66.8632 70.2188 68.2696 70.2187 69.7187C70.2161 71.4336 69.5338 73.0774 68.3212 74.29C67.1086 75.5025 65.4648 76.1849 63.75 76.1875H56.5625C54.8476 76.1849 53.2038 75.5025 51.9912 74.29C50.7787 73.0774 50.0963 71.4336 50.0937 69.7187C50.0937 68.2696 50.5852 66.8632 51.4881 65.7297C50.5249 65.3851 49.6576 64.816 48.9582 64.0695C48.2588 63.3229 47.7474 62.4204 47.4664 61.4368C47.1854 60.4531 47.1428 59.4167 47.3422 58.4133C47.5416 57.41 47.9773 56.4686 48.6131 55.6672C47.3629 55.2174 46.282 54.3927 45.5179 53.3057C44.7538 52.2187 44.3438 50.9224 44.3438 49.5937C44.3438 48.2651 44.7538 46.9688 45.5179 45.8818C46.282 44.7948 47.3629 43.9701 48.6131 43.5203C47.7103 42.3867 47.2187 40.9804 47.2187 39.5313C47.2221 37.8457 47.8823 36.2279 49.0593 35.0214C50.2363 33.8149 51.8372 33.1148 53.5222 33.0697C53.2327 31.4201 53.4094 29.7224 54.0325 28.1678C54.0636 28.09 54.1021 28.0154 54.1475 27.945C55.7934 25.3 56.5912 20.0819 55.1393 16.5385C54.8632 15.7281 54.3892 14.9994 53.7605 14.4183C53.1317 13.8373 52.368 13.4222 51.5384 13.2106C49.6122 12.7435 48.6922 12.9663 48.4478 13.1747C48.3112 13.2825 48.2969 13.5772 48.3184 13.8072C48.3472 14.3103 48.3903 14.8206 48.4334 15.3381C48.6922 18.5438 48.9869 22.1806 47.1253 25.4222C45.005 29.1022 42.1515 31.1075 39.1328 33.2278C38.2775 33.8316 37.3934 34.4497 36.5165 35.1181C35.6882 35.6848 34.9369 36.3564 34.2812 37.1163V45.4969C34.2812 45.8781 34.1298 46.2438 33.8602 46.5133C33.5906 46.7829 33.225 46.9344 32.8437 46.9344C32.4625 46.9344 32.0969 46.7829 31.8273 46.5133C31.5577 46.2438 31.4062 45.8781 31.4062 45.4969V37.375H24.2187C23.8293 37.3848 23.4596 37.5483 23.1903 37.8298C22.921 38.1112 22.7739 38.4877 22.7812 38.8772V66.0603C22.7739 66.4498 22.921 66.8263 23.1903 67.1077C23.4596 67.3892 23.8293 67.5527 24.2187 67.5625H32.5131C32.3504 67.0965 32.2254 66.6182 32.1394 66.1322C32.131 66.0654 32.1262 65.9982 32.125 65.9309V60.2025C32.125 59.8212 32.2764 59.4556 32.546 59.186C32.8156 58.9164 33.1812 58.765 33.5625 58.765C33.9437 58.765 34.3094 58.9164 34.5789 59.186C34.8485 59.4556 35 59.8212 35 60.2025V65.8159C35.1725 66.7575 36.9047 74.405 47.8872 73.1687C48.3028 74.195 48.8938 75.1411 49.6337 75.9647H48.7497C47.6823 76.1091 46.6067 76.1835 45.5297 76.1875C39.0034 76.1875 35.6109 73.1687 33.8787 70.4375H24.2187C23.0667 70.428 21.9655 69.9617 21.157 69.141C20.3484 68.3203 19.8986 67.2123 19.9062 66.0603V38.8772Z" fill="#2EB3D6"/>
<path id="Vector_3" d="M50.8125 46C49.8594 46 48.9453 46.3786 48.2713 47.0526C47.5974 47.7265 47.2188 48.6406 47.2188 49.5937C47.2188 50.5469 47.5974 51.461 48.2713 52.1349C48.9453 52.8089 49.8594 53.1875 50.8125 53.1875H69.5C70.4531 53.1875 71.3672 52.8089 72.0412 52.1349C72.7151 51.461 73.0937 50.5469 73.0937 49.5937C73.0937 48.6406 72.7151 47.7265 72.0412 47.0526C71.3672 46.3786 70.4531 46 69.5 46H50.8125Z" fill="#2EB3D6"/>
</g>
</svg>
